<svg id="food" xmlns="http://www.w3.org/2000/svg" xmlns:xlink="http://www.w3.org/1999/xlink" viewBox="0 0 400 400">
  <defs>
    <linearGradient id="uuid-6ae1fe2d-7168-4acd-b1be-9f087f178195" data-name="Gradient bez nazwy 35" x1="252.154" y1="308.265" x2="289.384" y2="303.146" gradientTransform="rotate(-3.046 -378.478 -323.49)" gradientUnits="userSpaceOnUse">
      <stop offset=".235" stop-color="#d37ca0"/>
      <stop offset="1" stop-color="#efa3b0"/>
    </linearGradient>
    <linearGradient id="uuid-854b237e-54e8-419a-bede-db18e9ebe166" data-name="Gradient bez nazwy 35" x1="-514.774" y1="136.047" x2="-477.545" y2="130.928" gradientTransform="matrix(-.9191 .04892 -.03859 -.72507 -350.703 351.641)" xlink:href="#uuid-6ae1fe2d-7168-4acd-b1be-9f087f178195"/>
    <linearGradient id="uuid-f864b8c5-1712-4b66-aded-63945826f59c" data-name="Gradient bez nazwy 35" x1="294.526" y1="119.128" x2="331.684" y2="114.019" gradientTransform="matrix(.7738 -.01748 -.03484 -.99927 28.894 343.182)" xlink:href="#uuid-6ae1fe2d-7168-4acd-b1be-9f087f178195"/>
    <linearGradient id="uuid-23f3eef1-34dc-4472-b12f-92bed43c6b4e" data-name="Gradient bez nazwy 35" x1="-560.202" y1="398.466" x2="-523.048" y2="393.358" gradientTransform="matrix(-.71222 .01609 .0253 .72561 -282.54 -1.97)" xlink:href="#uuid-6ae1fe2d-7168-4acd-b1be-9f087f178195"/>
    <style>
      .uuid-93f57b53-56d1-4cdd-8d0a-2d38747e2da1{fill:#895931}.uuid-33b4d11f-c80b-48f7-9477-dd88bdebe9f7{fill:#e72e2b}.uuid-456434d2-f18f-4206-8ce1-ca1011803a5f{fill:#d32020}.uuid-efa17cf5-ae80-4e34-b20e-593f96f4c9c2{fill:url(#uuid-6ae1fe2d-7168-4acd-b1be-9f087f178195)}.uuid-558f20a6-3c02-4fa8-9943-5355322e4c94{fill:#28af28}.uuid-301b2d61-1383-4d3a-98a9-e7b651dde3ad{fill:#d8c32a}.uuid-a7d82284-8283-4644-80ee-99175e0de52f{fill:url(#uuid-854b237e-54e8-419a-bede-db18e9ebe166)}.uuid-407c1782-160e-4716-947b-656353b55e3f{fill:#efa3b0}.uuid-8ff0a5cd-73f5-468f-b3aa-377edacf18b8{fill:#541309}.uuid-86c99062-65cd-424b-b6bb-ade3b7ab5fd8{fill:#c67424}.uuid-5145034e-b200-4b60-80e6-effb90823162{fill:#aa1d2f}.uuid-aa06ac27-70f4-40b6-a97b-027dd5406109{fill:#6d1d0d}.uuid-d27dc362-0f36-489c-aa9a-1d94516d38c3{fill:#aa9b0c}.uuid-d8e5b496-a205-40e6-812f-5f76d8f4dee7{fill:#1c931c}.uuid-75c9f358-0ca0-4f14-957a-750265ff7fee{fill:url(#uuid-f864b8c5-1712-4b66-aded-63945826f59c)}.uuid-82ae827d-6c1b-4e42-bd7d-a77d6075180d{fill:#148214}.uuid-febfd6d8-25e6-4b02-bce6-11278abd6fc6{fill:#e65a43}.uuid-a453ae79-1ffe-465b-b685-96aba16ed503{fill:#b42a26}.uuid-6fd2f7c1-a126-4f24-8be1-f3fb516bc6ea{fill:#bfb210}.uuid-f79c1b9c-2ae4-41ad-a2ab-ee3af5dd353b{fill:url(#uuid-23f3eef1-34dc-4472-b12f-92bed43c6b4e)}.uuid-0f14aab2-565d-4934-a4f4-c9677dc8f12f{fill:#b54563}.uuid-a07bab1c-1276-4151-82c6-0b5c4bab28d7{fill:#f08936}
    </style>
  </defs>
  <g id="bottom">
    <path class="uuid-86c99062-65cd-424b-b6bb-ade3b7ab5fd8" d="M78 295.435c35.866 69.526 197.345 73.616 231.783.076-54.3 45.207-174.461 43.134-231.783-.076Z"/>
    <path class="uuid-93f57b53-56d1-4cdd-8d0a-2d38747e2da1" d="M77 263.435c-4.323 10.436-3.627 25.538 2.853 35.29 47.638 43.999 185.954 42.652 230.16-3.715C344.737 196.55 101.522 197.37 77 263.435Z"/>
  </g>
  <g id="meat">
    <path class="uuid-8ff0a5cd-73f5-468f-b3aa-377edacf18b8" d="M307.178 266.182c-1.62 4.603-1.84 13.657-1.723 16.37s-15.792 13.359-15.948 9.746-4.332 11.949-19.262 17.118c-14.937 5.18-35.177-.28-46.246 10.156-11.068 10.437-29.852 24.816-39.274 17.083-9.43-7.733-28.88-8.706-36.47-2.04-7.598 6.667-27.063-8.785-38.068-11.026-11.012-2.23-13.316.577-18.548-8.24-5.232-8.829-12.884-17.541-11.27-22.145 1.055-2.994 1.638-10.988 3.166-14.72-3.14 15.864 6.263 15.815 13.145 27.14 3.554 5.848 19.595 9.883 27.783 11.471 10.133 1.967 21.06-4.242 31.193 1.668 11.644 6.781 33.949-2.512 43.03 4.16 8.14 5.986 26.616-27.289 45.436-21.87 13.659 3.93 23.824-6.237 32.746-6.855 6.574-.446 17.961-16.564 20.437-18.082 8.708-5.35 10.176-11.173 9.086-13.971a9.766 9.766 0 0 0-.922-1.787c1.384 1.72 2.413 3.827 1.71 5.824Z"/>
    <path class="uuid-aa06ac27-70f4-40b6-a97b-027dd5406109" d="M297.305 276.116c-2.476 1.518-13.863 17.636-20.437 18.082-8.921.618-19.087 10.785-32.745 6.854-18.82-5.418-37.298 27.857-45.436 21.872-9.082-6.673-31.387 2.62-43.03-4.161-10.135-5.91-21.06.299-31.194-1.667-8.188-1.589-24.23-5.624-27.783-11.472-6.882-11.325-16.285-11.276-13.145-27.14.03-.186.076-.385.114-.583 0 0 4.449-14.441 24.169-18.314 19.72-3.872 15.426-7.306 22.35-10.023 6.925-2.706 18.292-8.032 23.563-10.666l5.277-2.646s4.443-2.61 8.188-2.17c3.746.45 15.382 1.15 20.339.934 4.964-.215 2.873-.725 6.924-2.717 4.06-1.98 18.718 1.607 24.535 1.956 5.81.35 8.345 1.454 14.39-2.427 6.045-3.894.67-3.66 8.144-3.372 7.465.278 29.813-.875 34.246 5.606 8.486 12.412 24.768 18.588 29.696 26.296.381.585.686 1.185.922 1.787 1.09 2.798-.378 8.621-9.087 13.971Z"/>
    <path class="uuid-8ff0a5cd-73f5-468f-b3aa-377edacf18b8" d="M126.653 266.752s10.525-8.678 19.081-9.076 16.287 4.311 22.597.3 19.63 2.44 19.63 2.44 8.955 8.158 7.43 13.048-.623-5.867-7.016-8.473-20.96-6.535-26.895-2.253c-5.934 4.283-1.427 7.528-8.526 6.694-7.1-.833 7.294-8.151-4.064-6.633s-12.92 16.363-19.427 15.1c-6.506-1.261-25.256 5.771-20.478 8.64s-15.814-1.403-8.64-6.219 1.976 3.99 11.306-1.84c9.33-5.83 24.513-8.303 15.002-11.728ZM196.826 252.226s19.31-4.255 21.274 0 14.728 14.073 21.6 11.454 26.51 2.946 18.328 5.564 7.855 16.692 4.582 9.164 3.928-11.455 14.074-6.218c10.145 5.236 12.764-9.819 4.254-6.873-8.509 2.945.328 2.945-18.327-5.237s10.8.328 15.055-2.618 14.4-8.51-5.564-8.837c-19.965-.327-27.165-1.963-22.583-5.236 4.582-3.273-30.11-1.31-18.982 1.964 11.127 3.272 23.891 12.109 3.927 8.509-19.964-3.6-9.164-9.164-18.328-8.182-9.164.982-39.929 3.273-19.31 6.546ZM158.534 303.282s12.219.873 10.91 4.8 0 6.982 10.473 5.673c10.473-1.31-14.837-6.11 4.8-6.546s10.91 5.237 18.328 1.746c7.418-3.491 26.619-10.037 6.11-10.037s3.49 10.037-16.583 3.491c-20.074-6.546-38.838-.436-27.492-7.855 11.346-7.418-33.601 3.491-23.128 6.982s13.091-7.855 16.582 1.746Z"/>
  </g>
  <g id="cheese">
    <path class="uuid-d27dc362-0f36-489c-aa9a-1d94516d38c3" d="M306.058 273.663s-.287-1.269-.41-1.391-.409 1.595-.572 1.595.613-2.005.122-3.6-1.268-3.232-1.268-3.232l2.578.45 1.063 2.21-.45 3.395-1.063.573ZM198.026 326.628s2.182-2.727-.981-4.036c-3.164-1.31-15.6-3.164-5.455-5.564 10.146-2.4 9.164 4.036 9.164 4.036s-.546 5.019-2.728 5.564ZM79.55 294.772s1.963-.327 2.836 1.746-2.836-7.637-1.418-9.819-5.455 2.946-5.455 2.946l4.037 5.128Z"/>
    <path class="uuid-6fd2f7c1-a126-4f24-8be1-f3fb516bc6ea" d="M182.099 320.082s23.185-6.076 15.928 6.546c-5.019 8.728 4.363 23.128 4.363 23.128s-3.994-34.084 46.038-42.983c28.397-5.05 11.402-18.225 31.638-16.364 18.982 1.745 28.583-43.202 25.528-10.473-2.126 22.782 12.219-37.529-12.655-44.511-46.238-12.98-73.15-17.355-101.458-6.11-15.928 6.328-26.937-4.842-38.401 4.146s.788-4.106-30.813 13.312-45.515 9.871-48.827 27.49c-3.311 17.619.437 27.273 4.146 30.328 7.65 6.3 3.71 6.546 1.964-9.818-1.896-17.775 9.464.94 18.764 8.727 9.382 7.855 17.798 12.527 37.31 10.473 24.874-2.618 22.91 3.928 46.475 6.11Z"/>
    <path class="uuid-d27dc362-0f36-489c-aa9a-1d94516d38c3" d="M182.099 320.082s-.308-8.395 16.037-13.936c19.064-6.464 25.446-11.21 23.455-17.374 0 0-2.1 10.828-10.937 10.173-6.542-.484-31.392 12.737-28.555 21.137ZM148.061 237.061s9.382.873 12.437 3.273 17.455 8.51 20.073 7.418-7.854.219-13.746-5.672c-5.89-5.892-18.764-5.019-18.764-5.019ZM102.241 260.08c-1.03.088 35.674 2.619 43.53 7.528 7.854 4.91 32.073 9.818 34.364 7.855 0 0-13.746-.982-11.455-4.582s-15.382-6.546-21.273-6.873c-5.892-.328-29.783-5.237-45.166-3.928Z"/>
    <path class="uuid-301b2d61-1383-4d3a-98a9-e7b651dde3ad" d="M199.772 265.862c.488-.488 18.546-3.927 21.819-8.51 3.273-4.581-18.943-7.03-22.474-7.417-29.782-3.273 50.402-5.564 30.983-10.91-12.588-3.465 13.746-6.982 32.729-3.927 18.982 3.054 0 11.782 5.454 13.964 5.455 2.182-10.255 7.854-18.546 10.691-8.29 2.837-15.273 13.091-30.11 9.6s-25.746 2.4-19.855-3.49Z"/>
  </g>
  <g id="tomato">
    <path class="uuid-456434d2-f18f-4206-8ce1-ca1011803a5f" d="m207.034 276.525.184.264c-.117-.08-.175-.168-.184-.264ZM242.984 271.105c.014.15-.092.32-.307.491l.307-.491Z"/>
    <path class="uuid-33b4d11f-c80b-48f7-9477-dd88bdebe9f7" d="m190.304 237.666.72 7.494c1.085 11.288-17.718 23.399-42.001 27.06-24.283 3.66-44.845-2.515-45.93-13.803l-.72-7.494c.018.182.034.354.06.534a11.487 11.487 0 0 0 1.086 3.51c4.795 9.959 23.476 15.228 44.997 11.983 21.521-3.244 38.67-13.915 41.442-25.015.322-1.239.454-2.49.389-3.732a10.795 10.795 0 0 0-.043-.538Z"/>
    <path class="uuid-456434d2-f18f-4206-8ce1-ca1011803a5f" d="M144.162 221.648c-24.283 3.661-42.99 16.773-41.789 29.275.018.182.034.354.06.534a11.487 11.487 0 0 0 1.086 3.51c4.795 9.959 23.476 15.228 44.997 11.983 21.521-3.244 38.67-13.915 41.442-25.015.322-1.239.454-2.49.389-3.732a10.795 10.795 0 0 0-.043-.537c-1.201-12.502-21.859-19.679-46.142-16.018Zm29.044 35.557c-6.728 3.785-15.145 6.767-24.498 8.177-8.5 1.282-16.62 1.09-23.582-.2-10.311-1.903-18.094-6.189-20.857-11.6a10.143 10.143 0 0 1-1.094-3.693c-1.1-11.45 17.128-24.387 40.914-27.973 23.786-3.586 44.14 3.534 45.24 14.983a10.762 10.762 0 0 1-.362 3.913c-1.547 5.661-7.298 11.638-15.727 16.377-.009.001-.016.013-.034.016Z"/>
    <path class="uuid-febfd6d8-25e6-4b02-bce6-11278abd6fc6" d="M189.33 236.9a10.762 10.762 0 0 1-.363 3.912c-1.547 5.661-7.298 11.638-15.727 16.377-.009.002-.016.013-.034.016-6.728 3.785-15.145 6.767-24.498 8.177-8.5 1.282-16.619 1.09-23.582-.2-10.31-1.903-18.094-6.189-20.857-11.6a10.143 10.143 0 0 1-1.094-3.694c-1.1-11.449 17.128-24.386 40.914-27.972 23.786-3.587 44.14 3.534 45.24 14.983Z"/>
    <g>
      <path class="uuid-a453ae79-1ffe-465b-b685-96aba16ed503" d="m157.496 222.005-.228.346-.008.011-10.82 16.704-.774-.741-.879.892-.436-.791-.888.796-.764-.645-.986.811-.178-.918-.958 1.002-9.45-13.286-.134-.185c-.083-.854 5.783-2.45 13.102-3.553 7.319-1.104 13.32-1.297 13.401-.443Z"/>
      <path class="uuid-a07bab1c-1276-4151-82c6-0b5c4bab28d7" d="M137.652 227.1c.495 1.004.41 2.14-.19 2.536s-1.487-.096-1.982-1.1-.231-1.84.454-1.91c.727-.077 1.222-.53 1.718.474ZM151.764 226.587c-.633.916-1.561 1.288-2.074.832s-.416-1.57.217-2.486.788-.634 1.634-.393c.634.18.855 1.131.223 2.047ZM145.198 226.137c-.03 1.055-.618 1.904-1.314 1.897s-1.236-.87-1.207-1.924.639-1.346 1.335-1.339 1.216.31 1.186 1.366Z"/>
      <g>
        <path class="uuid-a453ae79-1ffe-465b-b685-96aba16ed503" d="m126.323 264.162.292-.422.01-.013 13.879-20.35.85 1.051 1.093-1.051.452 1.077 1.096-.926.847.926 1.211-.933.141 1.21 1.194-1.183 10.072 18.339.144.255c.033 1.117-6.942 2.485-15.58 3.043s-15.667.094-15.7-1.023Z"/>
        <path class="uuid-a07bab1c-1276-4151-82c6-0b5c4bab28d7" d="M132.95 258.954c-.707 1.92-.735 3.728-.06 4.037s1.793-.996 2.5-2.917.507-2.796-.167-3.105-1.565.064-2.273 1.985ZM148.489 258.745c.8 1.833 2.017 2.985 2.718 2.572s.62-2.233-.18-4.066-1.598-1.979-2.299-1.566-1.04 1.227-.24 3.06ZM140.668 259.103c.033 2.066.656 3.712 1.392 3.678s1.305-1.737 1.272-3.802-.726-2.644-1.462-2.61-1.236.67-1.202 2.734Z"/>
      </g>
      <g>
        <path class="uuid-a453ae79-1ffe-465b-b685-96aba16ed503" d="m120.42 230.001 17.22 9.182-2.176.595 1.801.398-1.828.543 1.273 1.013-1.917-.38 1.555 1.505-31.557 9.175s-4.435-11.913 15.63-22.031Z"/>
        <path class="uuid-a07bab1c-1276-4151-82c6-0b5c4bab28d7" d="M122.234 235.416c-.205.624-1.019.596-2.394.038s-2.323-1.515-2.119-2.14 1.282-.652 2.657-.094 2.06 1.572 1.856 2.196ZM114.11 246.277c.13.641-2.372 1.832-4.003 2.302s-2.568.152-2.698-.489.786-1.902 2.417-2.372 4.155-.082 4.285.559ZM115.92 240.65c-.191.63-1.024.312-2.47.314-3.195.005-2.408-1.408-2.123-2.063.26-.598 1.453-.725 2.817-.215s1.968 1.335 1.777 1.964Z"/>
      </g>
      <g>
        <path class="uuid-a453ae79-1ffe-465b-b685-96aba16ed503" d="m168.164 222.937-16.611 15.486 3.018-.388-1.57.773.919.396-1.9 1.023 1.666.217-2.383 1.497 34.428 3.174s12.824-16.689-17.567-22.178Z"/>
        <path class="uuid-a07bab1c-1276-4151-82c6-0b5c4bab28d7" d="M168.13 230.224c.318.545 1.103.275 2.333-.675s1.97-2.163 1.653-2.708-1.368-.253-2.598.697-1.705 2.14-1.388 2.686ZM178.08 238.36c-.005.661 2.652 1.074 4.326 1.046 1.673-.029 2.523-.615 2.527-1.277s-1.123-1.614-2.797-1.585-4.052 1.154-4.056 1.816ZM175.256 233.432c.305.554 1.054-.002 2.459-.43 3.105-.945 2.072-2.083 1.671-2.635-.366-.503-1.549-.272-2.777.63s-1.659 1.88-1.353 2.435Z"/>
      </g>
    </g>
    <g>
      <path class="uuid-33b4d11f-c80b-48f7-9477-dd88bdebe9f7" d="m178.488 227.196-1.682 8.909c-2.534 13.417 18.636 29.43 47.288 35.776 28.652 6.347 53.928.623 56.462-12.794l1.683-8.908a14.096 14.096 0 0 1-1.814 4.746c-6.828 11.526-29.755 16.317-55.148 10.692-25.392-5.624-44.74-19.78-46.842-33.285a14.62 14.62 0 0 1-.056-4.496c.03-.219.069-.423.11-.64Z"/>
      <path class="uuid-456434d2-f18f-4206-8ce1-ca1011803a5f" d="M178.488 227.196c-.04.217-.08.421-.11.64a14.62 14.62 0 0 0 .058 4.496c2.1 13.505 21.449 27.66 46.841 33.286 25.393 5.624 48.32.833 55.148-10.693a14.096 14.096 0 0 0 1.683-4.111c.051-.214.09-.419.13-.635 2.807-14.86-18.139-32.062-46.79-38.41-28.652-6.346-54.153.568-56.96 15.428Zm18.278 24.74c-9.566-6.352-15.792-13.969-17.022-20.867a12.873 12.873 0 0 1-.005-4.71c2.57-13.61 27.702-20.48 55.767-14.263 28.065 6.217 48.457 23.171 45.887 36.78a12.44 12.44 0 0 1-1.713 4.33c-3.9 6.251-13.68 10.748-26.224 12.19-8.472.98-18.207.551-28.236-1.67-11.036-2.445-20.78-6.695-28.414-11.768-.021-.005-.03-.019-.04-.021Z"/>
      <path class="uuid-febfd6d8-25e6-4b02-bce6-11278abd6fc6" d="M179.738 226.358a12.873 12.873 0 0 0 .006 4.711c1.23 6.898 7.456 14.515 17.022 20.868.01.002.019.016.04.021 7.634 5.073 17.378 9.323 28.414 11.768 10.029 2.221 19.764 2.65 28.235 1.67 12.545-1.442 22.326-5.939 26.225-12.19a12.44 12.44 0 0 0 1.713-4.33c2.57-13.609-17.822-30.563-45.887-36.78-28.065-6.217-53.197.653-55.767 14.262Z"/>
      <g>
        <path class="uuid-a453ae79-1ffe-465b-b685-96aba16ed503" d="m219.455 211.117.235.433.009.013 11.116 20.86 1.007-.823.953 1.139.61-.912.974 1.025.986-.71 1.09 1.05.314-1.083 1.036 1.276 12.76-15.131.182-.21c.192-1.016-6.651-3.4-15.286-5.313-8.636-1.913-15.794-2.63-15.986-1.614Z"/>
        <path class="uuid-a07bab1c-1276-4151-82c6-0b5c4bab28d7" d="M242.64 218.82c-.703 1.161-.726 2.527-.052 3.05s1.79.004 2.493-1.157.478-2.181-.333-2.322c-.862-.15-1.406-.733-2.108.429ZM225.812 217.063c.656 1.147 1.727 1.668 2.39 1.163s.67-1.844.013-2.991-.874-.823-1.912-.603c-.779.164-1.147 1.284-.49 2.431ZM233.716 217.056c-.08 1.265.531 2.329 1.365 2.376s1.575-.94 1.655-2.204-.617-1.662-1.45-1.71-1.49.274-1.57 1.538Z"/>
        <g>
          <path class="uuid-a453ae79-1ffe-465b-b685-96aba16ed503" d="m252.135 264.078-.304-.527-.01-.017-14.376-25.472-1.133 1.19-1.192-1.347-.659 1.252-1.21-1.196-1.114 1.04-1.348-1.215-.3 1.437-1.3-1.513-14.058 21.125-.2.293c-.162 1.334 8.033 3.536 18.306 4.903 10.274 1.367 18.735 1.381 18.897.047Z"/>
          <path class="uuid-a07bab1c-1276-4151-82c6-0b5c4bab28d7" d="M244.777 257.311c.636 2.355.47 4.52-.37 4.835s-2.037-1.337-2.673-3.692-.3-3.387.54-3.702 1.866.204 2.503 2.56ZM226.209 255.802c-1.158 2.129-2.74 3.408-3.534 2.858s-.498-2.722.66-4.85 2.129-2.238 2.922-1.688 1.11 1.552-.048 3.68ZM235.527 256.865c-.266 2.468-1.192 4.388-2.069 4.287s-1.371-2.183-1.105-4.652 1.158-3.104 2.035-3.003 1.404.9 1.139 3.368Z"/>
        </g>
        <g>
          <path class="uuid-a453ae79-1ffe-465b-b685-96aba16ed503" d="m262.937 223.686-21.606 9.59 2.538.89-2.199.33 2.128.798-1.633 1.108 2.335-.3-2.026 1.676 36.75 13.532s6.612-13.893-16.287-27.624Z"/>
          <path class="uuid-a07bab1c-1276-4151-82c6-0b5c4bab28d7" d="M260.175 230.018c.177.763 1.154.795 2.86.24s2.946-1.626 2.77-2.389-1.462-.884-3.168-.329c-1.706.556-2.639 1.715-2.462 2.478ZM268.705 243.67c-.226.757 2.638 2.384 4.538 3.078 1.9.694 3.055.39 3.28-.366s-.73-2.34-2.63-3.033-4.963-.436-5.188.32ZM267.156 236.792c.16.768 1.192.456 2.92.575 3.823.265 3.036-1.49 2.767-2.296-.246-.736-1.66-.985-3.347-.485s-2.5 1.438-2.34 2.206Z"/>
        </g>
        <g>
          <path class="uuid-a453ae79-1ffe-465b-b685-96aba16ed503" d="m206.59 211.368 18.178 19.874-3.569-.71 1.795 1.052-1.143.4 2.16 1.377-2.017.125 2.687 1.984-41.537 1.01s-13.515-21.006 23.446-25.113Z"/>
          <path class="uuid-a07bab1c-1276-4151-82c6-0b5c4bab28d7" d="M205.833 220.088c-.44.627-1.35.241-2.718-.995-1.367-1.237-2.12-2.748-1.68-3.374s1.664-.192 3.032 1.044 1.804 2.699 1.365 3.325ZM193.038 229.017c-.067.792-3.291 1.07-5.29.901s-2.951-.94-2.884-1.732 1.52-1.84 3.52-1.67 4.721 1.71 4.654 2.5ZM196.957 223.35c-.426.638-1.262-.087-2.895-.713-3.612-1.382-2.252-2.66-1.712-3.288.493-.573 1.883-.201 3.254.977s1.779 2.386 1.353 3.024Z"/>
        </g>
      </g>
    </g>
    <g>
      <path class="uuid-33b4d11f-c80b-48f7-9477-dd88bdebe9f7" d="m237.11 257.262.987 10.268c1.487 15.466-25.285 32.212-59.801 37.416-34.516 5.203-63.696-3.106-65.183-18.572l-.987-10.269a15.229 15.229 0 0 0 1.608 5.536c6.765 13.615 33.278 20.696 63.868 16.084 30.59-4.611 55.004-19.37 58.996-34.608.464-1.7.657-3.417.57-5.12-.01-.25-.033-.486-.057-.735Z"/>
      <path class="uuid-456434d2-f18f-4206-8ce1-ca1011803a5f" d="M237.11 257.262c.025.249.047.485.058.736a16.25 16.25 0 0 1-.57 5.119c-3.992 15.237-28.407 29.996-58.996 34.608-30.59 4.612-57.103-2.469-63.868-16.084a15.227 15.227 0 0 1-1.524-4.804c-.037-.247-.06-.483-.084-.732-1.646-17.129 24.995-35.246 59.51-40.45 34.516-5.204 63.828 4.478 65.475 21.606Zm-24.336 26.894c11.998-6.56 20.197-14.798 22.421-22.57.52-1.794.705-3.594.535-5.368-1.508-15.687-30.39-25.293-64.2-20.196-33.808 5.097-59.767 22.972-58.26 38.66.17 1.773.692 3.466 1.536 5.054 3.9 7.397 14.936 13.213 29.575 15.744 9.886 1.715 21.419 1.916 33.5.094 13.295-2.004 25.268-6.157 34.844-11.397.025-.003.036-.02.049-.021Z"/>
      <path class="uuid-febfd6d8-25e6-4b02-bce6-11278abd6fc6" d="M235.73 256.219c.17 1.773-.016 3.573-.535 5.366-2.224 7.773-10.423 16.01-22.421 22.571-.013.002-.024.018-.05.022-9.575 5.24-21.548 9.392-34.842 11.397-12.082 1.821-23.615 1.62-33.501-.095-14.639-2.531-25.675-8.347-29.575-15.744a13.446 13.446 0 0 1-1.536-5.055c-1.507-15.687 24.452-33.561 58.26-38.659 33.81-5.097 62.692 4.51 64.2 20.197Z"/>
      <g>
        <path class="uuid-a453ae79-1ffe-465b-b685-96aba16ed503" d="m190.578 236.043-.326.476-.011.015-15.453 22.98-1.096-1.009-1.253 1.23-.616-1.082-1.265 1.099-1.083-.878-1.404 1.12-.249-1.258-1.365 1.38-13.36-18.142-.191-.251c-.113-1.171 8.228-3.403 18.63-4.972s18.93-1.879 19.042-.708Z"/>
        <path class="uuid-a07bab1c-1276-4151-82c6-0b5c4bab28d7" d="M162.361 243.178c.7 1.374.573 2.93-.28 3.479s-2.114-.122-2.813-1.495-.32-2.518.654-2.622c1.034-.11 1.74-.735 2.44.638ZM182.412 242.368c-.903 1.26-2.224 1.777-2.95 1.155s-.583-2.148.32-3.408c.903-1.26 1.122-.876 2.323-.552.9.242 1.21 1.544.307 2.805ZM173.087 241.8c-.048 1.447-.888 2.616-1.877 2.61s-1.752-1.181-1.705-2.628c.048-1.446.914-1.85 1.903-1.844s1.726.416 1.679 1.863Z"/>
        <g>
          <path class="uuid-a453ae79-1ffe-465b-b685-96aba16ed503" d="m146.087 294.072.417-.58.015-.018 19.814-28.005 1.203 1.436 1.558-1.45.637 1.474 1.562-1.278 1.198 1.263 1.726-1.289.194 1.659 1.702-1.632 14.22 25.064.203.348c.042 1.531-9.874 3.46-22.148 4.29-12.274.831-22.26.249-22.3-1.283Z"/>
          <path class="uuid-a07bab1c-1276-4151-82c6-0b5c4bab28d7" d="M155.527 286.882c-1.015 2.638-1.062 5.116-.106 5.535s2.553-1.38 3.568-4.018.732-3.837-.224-4.256-2.224.101-3.238 2.739ZM177.603 286.477c1.128 2.507 2.85 4.077 3.849 3.506.998-.57.893-3.066-.235-5.573s-2.261-2.7-3.26-2.13-1.482 1.69-.354 4.197ZM166.49 287.028c.037 2.831.915 5.084 1.96 5.03 1.046-.052 1.863-2.39 1.826-5.22s-1.02-3.62-2.065-3.567-1.758.926-1.72 3.757Z"/>
        </g>
        <g>
          <path class="uuid-a453ae79-1ffe-465b-b685-96aba16ed503" d="m137.868 247.286 24.418 12.456-3.094.833 2.556.532-2.6.759 1.803 1.378-2.721-.506 2.202 2.051-44.876 12.818s-6.244-16.296 22.312-30.32Z"/>
          <path class="uuid-a07bab1c-1276-4151-82c6-0b5c4bab28d7" d="M140.417 254.696c-.294.856-1.45.824-3.4.07-1.951-.754-3.294-2.06-3-2.916s1.823-.905 3.774-.15 2.92 2.139 2.626 2.996ZM128.824 269.647c.181.878-3.38 2.53-5.7 3.186s-3.648.229-3.829-.65 1.125-2.613 3.445-3.27 5.903-.144 6.084.734ZM131.422 261.92c-.275.864-1.457.435-3.51.449-4.54.03-3.415-1.912-3.007-2.813.373-.82 2.068-1.005 4.003-.315s2.79 1.815 2.514 2.679Z"/>
        </g>
        <g>
          <path class="uuid-a453ae79-1ffe-465b-b685-96aba16ed503" d="m205.729 237.239-23.674 21.357 4.29-.556-2.236 1.071 1.304.537-2.703 1.416 2.366.285-3.393 2.07 48.895 4.09s18.299-22.976-24.85-30.27Z"/>
          <path class="uuid-a07bab1c-1276-4151-82c6-0b5c4bab28d7" d="M205.645 247.228c.448.745 1.566.37 3.318-.942s2.809-2.98 2.361-3.725-1.943-.336-3.695.976c-1.752 1.312-2.432 2.946-1.984 3.691ZM219.74 258.306c-.01.907 3.763 1.453 6.141 1.401 2.377-.051 3.587-.862 3.597-1.768s-1.588-2.205-3.966-2.153-5.762 1.614-5.772 2.52ZM215.752 251.572c.431.758 1.499-.01 3.496-.607 4.416-1.32 2.955-2.872 2.387-3.625-.517-.687-2.199-.362-3.948.883-1.75 1.245-2.366 2.592-1.935 3.35Z"/>
        </g>
      </g>
    </g>
  </g>
  <g id="salat">
    <path class="uuid-82ae827d-6c1b-4e42-bd7d-a77d6075180d" d="M178.825 315.982s-.046-3.247 2.025-5.929-1.23-4.181 1.863-2.184c8.87 5.728 3.508 7.163 2.253 8.713s-2.608 5.113-2.15 6.699c0 0-1.558-3.353-.46-4.447s3.627-4.167 2.97-5.684-3.705-.277-3.705-.277-1.026 1.985-.514 2.434c0 0-.658 2.452-1.085 2.431s.126-1.938-.79-2.846.611-2.636.86-2.89-1.267 3.98-1.267 3.98ZM243.507 271.45s4.769-.37 6.54.294 3.175-1.295 3.568-2.101 1.294 1.745 1.294 1.745-.604-1.558-.433-2.489-2.137-1.857-2.706-1.884-3.9.293-3.9.293l-4.363 4.142Z"/>
    <path class="uuid-d8e5b496-a205-40e6-812f-5f76d8f4dee7" d="M321.848 257.664s-3.985 1.474-3.731 2.795 1.337 2.322 1.337 2.322-1.266-1.24-.414-2.271.887.14.887.14-.29.392-.403.52.187.024.859-.363 2.056-2.207 1.465-3.143ZM102.46 235.02s-.634 4.778-1.71 5.35-1.956 2.888-1.45 3.384-2.308-4.167 1.089-9.295 7.217-8.053 6.355-8.024.784 8.112-4.284 8.585ZM68.255 234.014s-3.598 4.27-2.726 9.131 8 15.894 11.818 17.587c3.819 1.693-1.49-.198-1.29-5.511.199-5.314 7.261-1.411 8.707 2.934s3.675-4.853-3.498-11.737-13.01-12.404-13.01-12.404ZM91.96 286.544s9.568-.257 9.721 4.34 1.883 11.69.285 12.241 3.847-.253 4.967-5.825-1.129-5.87-5.78-11.063.948-1.4-9.194.307Z"/>
    <path class="uuid-558f20a6-3c02-4fa8-9943-5355322e4c94" d="M306.493 228.978c15.78 9.69 21.249 18.077 23.637 21.441 2.389 3.364-13.793 17.9-13.793 17.9s8.556-7.205 2.647-12.566l-5.91-5.36s-11.089-9.102-17.885-.898c-6.796 8.203 2.029 20.039 2.029 20.039l15.787 23.42s-20.498-9.613-25.173-17.088c-4.676-7.474-26.508-14.227-34.66-10.008-8.153 4.218-20.432 10.92-7.907 16.415 12.525 5.495 25.173 17.088 18.377 25.291s-23.43 20.75-22.643 19.854c7.384-8.423 12.342-17.41 2.694-19.511-20.309-4.425-35.884 27.075-43.194 4.04-7.31-23.034-22.54-1.527-21.363 10.795 1.177 12.322-9.888 15.962-27.748 14.655-6.02-.44 27.8 1.712 16.689-14.234-11.112-15.947-34.79-4.483-37.136-8.46-2.86-4.85-4.723 11.393-1.202 13.389 3.52 1.997 26.802 7.558-5.572 1.66-32.373-5.9-23.434-22.935-13.623-25.409 9.812-2.474 1.074-19.62-20.074-17.412s-21.965 26.93-23.318 13.57c-1.352-13.359-6.076-25.147 9.017-24.626 15.094.52 26.435-8.588 23.938-13.487-2.497-4.899-15.796-4.67-21.597-8.496s-17.783-22.677-7.37-20.255-5.083 4.887 17.269 12.472 7.588-18.74 18.122-21.876-6.243 8.785 14.218 6.991c20.461-1.794 10.378-30.018 35.534-29.15 25.155.869 28.788 16.057 51.865 13.603s-1.098-19.913 20.552-16.479c21.649 3.435 40.749 7.032 77.793 29.78Z"/>
    <path class="uuid-d8e5b496-a205-40e6-812f-5f76d8f4dee7" d="M71.553 293.755s-.555-7.32 6.589-9.424 21.986 1.007 25.63-3.468 7.893-2.004-4.299-2.095-25.359-1.454-25.48 2.343-4.192 8.598-2.44 12.644ZM291.268 273.299s.079 5.159 4.452 6.692c4.373 1.533 8.862 6.514 9.399 6.776s-6.026-6.329-7.566-10.537-4.2-2.845-5.527-7.216-4.029-13.85-1.4-16.776c2.587-2.877 3.131-3.32 6.082-5.057 8.92-5.254-20.064 4.634-3.466-6.037 5.746-3.695-23.077 10.098-24.407 2.867 0 0-6.105 4.339 1.33 7.231s13.887-4.07 14.802-.898-10.863 7.141-5.503 8.424-19 .914-23.011-1.906c-4.012-2.82-14.47 9.904-13.671 9.629 0 0 5.193-4.65 12.163-5.443s17.414.973 21.564 4.193c4.15 3.22 5.822 2.106 7.658 1.206 0 0 2.734-1.926 7.1 6.852ZM120.576 291.481s10.739 3.14 5.665 9.046c-5.073 5.906-11.01 9.696-13.37 10.24s-8.745 7.709 1.076 11.299 13.588 3.231 13.588 3.231-1.216 2.7-3.17-4.139-20.855-.19-2.049-8.28 7.83-2.967 13.973-6.157 5.805-4.95-.06-6.014-7.76-1.887-3.715-6.5c4.043-4.612-11.938-2.726-11.938-2.726ZM97.451 247.99c-1.818.517 10.368-.533 13.244 3.662 2.877 4.195 15.423 6.716 19.55 8.598 5.305 2.42-8.714-10.498-4.806-4.736 2.43 3.582-20.391-5.85-11.948-7.686 5.541-1.206-4.15-3.22-16.04.162ZM202.41 316.439s4.542-5.5 6.687-10.173 4.539-11.222 4.123-15.281 4.489 4.98 2.784 13.526-.851 13.617-.851 13.617-5.38 3.86-9.527 1.74c-3.148-1.608-3.19-3.244-3.216-3.429ZM187.84 213.443s6.722 18.34 12.72 20.564 8.835 13.185 6.156 13.974 4.142 1.12 7.214-.474-7.383-.407-5.496-8.166c1.886-7.758-5.284 1.016-20.594-25.898ZM159.124 310.32s4.672-3.957 5.097-11.48c0 0 2.054 14.716-.071 16.723l-.99 1.263s-3.377-2.843-6.095-3.918c0 0 .308-1.247 2.06-2.588ZM173.357 288.18l10.357-6.922 9.746 4.152 3.678 6.78 4.87-2.214-4.534-.315.498-10.232s.054-2.567-4.576-4.324-7.772 4.69-12.178 1.246c-4.406-3.445-2.002 4.31-2.002 4.31s.694 1.237-5.859 7.52ZM227.896 303.99s8.687-9.432 14.403-7.244 14.902 6.266 10.915 12.602c0 0 5.602-1.26 5.954-6.075.353-4.816 4.396-9.429-9.228-12.379-13.625-2.95-1.744-1.947-22.044 13.096ZM212.9 272.541c1.06-.493 10.214 2.784 9.73 6.438s-1.47 13.249.254 13.192-1.744-1.948 2.279-8.565c4.024-6.618 3.86 1.083 8.978 3.478 5.117 2.394 5.713-2.103 5.713-2.103s-2.32 4.555-6.052.342 2.13-7.44 1.92-12.331-3.358-7.024-8.852-10.899c-5.493-3.874-7.965-2.486-9.37-2.672s.748-1.33 5.174 4.118c4.427 5.45 9.845 9.886.156 7.458-9.69-2.428-12.497 1.49-12.497 1.49s-4.775 3.657-2.225 5.998-1.914-2.828 4.792-5.944Z"/>
    <path class="uuid-d8e5b496-a205-40e6-812f-5f76d8f4dee7" d="M127.055 277.848s-12.798 3.881 10.005-.676c12.046-2.408 44.04-7.008 6.396-16.6-8.578-2.186 18.532-15.9-2.492-20.949-11.296-2.713 22.14.217 12.86-11.238-1.505-1.858 7.965-5.428 15.691 2.46 7.726 7.89.8-.274-7.17-.568s1.16 14.265 7.305 13.935c6.146-.33-19.48 8.86-10.959 10.751 8.52 1.893 12.996 5.537 18.564.935 5.567-4.6 5.44-6.524 1.165-11.668s-1.576-2.497 7.419-1.305 13.61 23.924 5.888 21.756c-7.722-2.167-32.104-7.401-22.307 4.29 9.796 11.69 1.1 2.292-7.216 5.527-29.254 11.377 14.22 4.935 1.205 8.168-13.014 3.233-61.213-4.3-36.354-4.818ZM218.887 204.353s1.385 5.38 2.716 6.129 8.498 4.94 10.547 5.307 4.623 1.09 5.581 4.649 3.218 10.247 4.424 10.502-4.478-.022-6.473-2.956 3.757-3.888-1.46-6.963c-5.218-3.075-9.02.426-7.363 1.599s3.85 4.038 2.346 6.031-5.149 5.038-4.28 6.393c0 0-1.043-.043-1.7-2.275s3.436-2.548 3.373-3.51-4.242-1.802-5.104-1.058-1.783 3.387-1.186 4.276.445 2.395.09 2.92-1.08.954-1.08.954l.533-1.503-1.002.725-.505.934.25.987-1.569-1.829s1.305-1.21 1.191-2.511-4.477-2.548-5.031-4.481.704-2.433.704-2.433-.815.75.148 1.402 3.567 1.14 3.885.181-.542-5.268-4.277-5.859-5.335-4.711-4.161-5.652 2.547-1.235 2.547-1.235 3.324-.8 5.168-2.843 1.688-7.88 1.688-7.88ZM227.47 250.017s-6.528 2.853-10.06 2.528c-3.533-.326-2.501.526 5.642 2.75s8.909-1.394 9.14-4.223c0 0-1.918 2.606-3.286 2.138s4.794-3.798 3.507-8.116 9.874-1.122 9.736 3.15c0 0-2.694 5.22-4.858 5.363s4.18.84 6.989-.933c2.809-1.773 2.404-4.115.904-5.744s-4.641-4.906.286-5.397c4.928-.49 12.453 2.08 12.333 4.066s5.046-4.622 2.215-7c-2.831-2.377.032-6.718 2.477-6.822s-6.4-2.422-7.963-.34 3.96 8.962-1.475 6.811c-5.436-2.15-16.182-2.001-13.192.254s-2.555 3.094-5.957 1.785c-3.402-1.31-9.89 3.408-5.178 3.46 4.713.053 1.85 6.539-1.26 6.27Z"/>
    <path class="uuid-d8e5b496-a205-40e6-812f-5f76d8f4dee7" d="M137.725 224.678s7.687-7.277 6.298-9.749 2.337-6.84 6.113-6.197 8.352 4.968 8.035 7.357 5.15-4.323 6.001-5.354 2.987-2.035 5.64.605 1.667 10.089 7.026 10.656c0 0-4.738 3.376-7.12-.229s-10.242-1.5-10.802.57-10.894 3.42-10.894 3.42 2.265-4.134 2.488-5.82-17.56 8.398-12.785 4.74ZM114.265 231.197s6.955.324 10.804-.951c.068-.023.134-.045.2-.069 3.803-1.355.896 4.028.44 4.587s.914-2.214-.775-2.057-3.36 5.561-.432 6.855 6.178.867 6.178.867-.218.924-3.254.808c-3.035-.116-3.53 3.25.956 3.94 0 0-1.23 1.363-3.363.556s.645-4.873-3.474-5.085-3.733 2.985-5.21 1.55c0 0-1.814-2.862-.614-1.845s5.418.48 3.072-.88-10.382-1.52-9.884.12c0 0-3.083-.838-1.68-2.797s4.404 3.825 3.663-.659-4.35-3.866-4.004-4.678.427-1.421 2.033-.589 1.34-.394 1.499-.516.534-.072.534-.072 1.765.71 3.31.915ZM253.258 203.999s-12.042.215-11.123 1.195 18.568-1.257 9.89 2.36c0 0-2.39 4.355-.272 4.922s-1.856-1.104 1.234-3.555 16.374 3.791 13.932 4.23-12.652 3.376-10.54 3.275 8.478-3.548 13.596-1.154 5.306 13.194 8.758 10.886 7.736-4.409 10.517-1.657 2.865-2.194-.696-4.096-10.424.239-11.077-3.47 5.133-1.323 5.133-1.323-11.529-7.248-29.352-11.613Z"/>
    <path class="uuid-82ae827d-6c1b-4e42-bd7d-a77d6075180d" d="M148.99 240.043c.562.067 5.547 1.307 4.986 3.378s-4.708 6.384-4.117 7.32-1.183 7.852 1.431 8.628-1.023-1.995.193-4.694 2.825-6.204 6.928-6.947c4.103-.744 5.104-2.9 5.104-2.9s-3.69 1.943-4.806.65 1.551-5.228-.015-7.438-.842 2.034-2.125 2.007-5.717-2.188-9.558-1.267c0 0-9.144-.068 1.978 1.263ZM100.222 263.23s1.028 2.14 2.877 2.575 8.965 3.572 7.604 3.773c0 0-1.588-.973-5.654-1.226s-6.963 1.46-7.05.686 3.36-4.321 2.223-5.807Z"/>
  </g>
  <g id="onions">
    <path class="uuid-efa17cf5-ae80-4e34-b20e-593f96f4c9c2" d="M323.76 267.891c-7.85.418-25.769 4.955-47.694 6.139 15.184-1.522 44.856-6.85 44.856-6.85l2.838.711Z"/>
    <path class="uuid-407c1782-160e-4716-947b-656353b55e3f" d="M262.963 278.692c-20.298-1.491-33.514-5.699-35.556-6.32-5.182-1.599-13.845-4.484-16.796-6.41-5.557-3.627-28.336-14.83-29.122-15.22-.81-.388-18.529-9.876-21.611-11.173-1.625-.683-9.016-3.894-12.508-5.218-3.517-1.339-18.87-7.11-40.047-3.719-9.621 1.541-19.084 5.578-22.1 6.9-14.422 6.392-30.453 20.336-30.453 20.336l-.052-.976c52.595-45.323 93.91-22.519 102.51-19.194 8.598 3.326 55.996 28.942 55.996 28.942 17.157 7.216 34.258 10.703 49.739 12.052Z"/>
    <path class="uuid-5145034e-b200-4b60-80e6-effb90823162" d="M325.011 273.88s-26.525 7.816-61.447 4.863a7.41 7.41 0 0 1-.601-.05c-15.48-1.35-32.583-4.837-49.74-12.053 0 0-47.397-25.616-55.996-28.942-8.6-3.325-49.914-26.129-102.509 19.194l-.458-.076-2.63-.407s32.17-28.988 67.786-28.279c35.616.693 45.703 14.441 91.774 35.366 21.798 9.906 44.858 11.6 64.66 10.545l.216-.011c21.925-1.184 39.844-5.721 47.694-6.139l1.251 5.99Z"/>
    <path class="uuid-0f14aab2-565d-4934-a4f4-c9677dc8f12f" d="m54.718 256.892.052.976-2.537-.462-.603-.997 2.63.408.458.075z"/>
    <path class="uuid-407c1782-160e-4716-947b-656353b55e3f" d="M245.25 202.54s-18.27 43.184-47.452 49.428c0 0-1.805-.116-3.115-.764-1.323-.67-13.962-12.306-42.151-.084-28.211 12.216-30.987 22.282-30.987 22.282s-1.721 9.423-6.828 12.783c-5.756 3.775-9.076 5.628-26.091 5.837l.431-1.441c.348.1 10.718.464 13.36-.127 5.367-1.23 11.106-2.882 14.137-7.345 3.02-4.485 3.783-8.742 4.93-10.779 1.134-2.059 2.26-4.102 6.751-7.911 4.277-3.634 18.051-12.466 27.524-15.45 9.45-2.992 17.817-4.729 24.008-3.704 7.532 1.262 8.407 1.585 12.238 3.845 2.414 1.418 4.783 3.35 7.35 2.193 2.588-1.152 26.135-6.952 43.84-47.805l2.054-.958Z"/>
    <path class="uuid-5145034e-b200-4b60-80e6-effb90823162" d="m245.25 202.54 2.213 2.416c6.221 6.054-37.783 56.813-55.14 46.155-17.379-10.664-48.633 5.43-61.412 13.873-12.789 8.459-4.758 14.54-16.222 22.776-11.463 8.237-28.563 5.84-28.563 5.84l2.5-1.578c17.015-.21 20.335-2.062 26.091-5.837 5.107-3.36 6.828-12.783 6.828-12.783s2.776-10.066 30.987-22.282c28.189-12.222 40.828-.585 42.15.084 1.311.648 3.116.764 3.116.764 29.183-6.245 47.452-49.428 47.452-49.428Z"/>
    <path class="uuid-0f14aab2-565d-4934-a4f4-c9677dc8f12f" d="m92.432 273.93-2.035.424-3.057-.8 2.188-.249 2.904.625z"/>
    <path class="uuid-a7d82284-8283-4644-80ee-99175e0de52f" d="M81.304 232.55c7.225-.385 23.754-3.867 43.934-4.953-13.983 1.262-41.331 5.44-41.331 5.44l-2.603-.488Z"/>
    <path class="uuid-407c1782-160e-4716-947b-656353b55e3f" d="M137.338 224.074c18.655.874 30.768 3.796 32.641 4.226 4.75 1.109 12.689 3.116 15.383 4.485 5.074 2.579 25.911 10.485 26.63 10.76.742.274 16.942 6.986 19.764 7.896 1.487.48 8.253 2.737 11.452 3.663 3.22.937 17.283 4.973 36.798 2.29 8.866-1.22 17.611-4.25 20.4-5.242 13.331-4.794 28.22-15.092 28.22-15.092l.038.71c-48.846 33.476-86.613 17.33-94.489 15.003-7.875-2.328-51.21-20.454-51.21-20.454-15.706-5.067-31.401-7.424-45.627-8.245Z"/>
    <path class="uuid-5145034e-b200-4b60-80e6-effb90823162" d="M80.214 228.21s24.48-5.953 56.572-4.167c.177.003.375.016.552.03 14.226.822 29.92 3.18 45.628 8.246 0 0 43.334 18.126 51.21 20.454 7.875 2.328 45.642 18.473 94.488-15.004l.421.05 2.415.27s-29.89 21.396-62.644 21.248c-32.753-.137-41.89-10.023-84.052-24.754-19.949-6.974-41.142-7.966-59.369-6.996l-.197.01c-20.18 1.086-36.71 4.568-43.934 4.953l-1.09-4.34Z"/>
    <path class="uuid-0f14aab2-565d-4934-a4f4-c9677dc8f12f" d="m328.664 237.769-.037-.709 2.328.31.545.718-2.415-.269-.421-.05z"/>
    <path class="uuid-407c1782-160e-4716-947b-656353b55e3f" d="M152.846 279.23s17.25-31.57 44.158-36.408c0 0 1.659.066 2.857.523 1.21.473 12.716 8.8 38.772-.373 26.075-9.168 28.732-16.512 28.732-16.512s1.68-6.865 6.412-9.36c5.334-2.802 8.406-4.182 24.06-4.51l-.412 1.052c-.319-.069-9.854-.227-12.29.23-4.95.95-10.245 2.208-13.08 5.483-2.823 3.29-3.569 6.392-4.645 7.884-1.065 1.507-2.12 3.004-6.292 5.818-3.972 2.685-16.732 9.245-25.476 11.512-8.724 2.27-16.438 3.619-22.122 2.938-6.915-.84-7.716-1.065-11.218-2.668-2.205-1.006-4.364-2.385-6.737-1.518-2.393.864-24.112 5.322-40.82 35.191l-1.899.718Z"/>
    <path class="uuid-5145034e-b200-4b60-80e6-effb90823162" d="m152.846 279.23-2.011-1.733c-5.66-4.335 35.34-41.675 51.196-34.109 15.876 7.57 44.79-4.447 56.632-10.714 11.85-6.279 4.526-10.614 15.156-16.718s26.334-4.538 26.334-4.538l-2.316 1.172c-15.654.328-18.726 1.708-24.06 4.51-4.732 2.495-6.412 9.36-6.412 9.36s-2.657 7.343-28.732 16.512c-26.056 9.172-37.562.846-38.772.373-1.198-.457-2.857-.523-2.857-.523-26.908 4.838-44.158 36.408-44.158 36.408Z"/>
    <path class="uuid-75c9f358-0ca0-4f14-957a-750265ff7fee" d="M283.053 222.016c-6.08.194-20.2-2.935-37.183-2.409 11.809.336 35.044 3.34 35.044 3.34l2.14-.931Z"/>
    <path class="uuid-407c1782-160e-4716-947b-656353b55e3f" d="M235.453 215.978c-15.545 3.067-25.448 8.29-26.98 9.068-3.887 1.998-10.37 5.548-12.514 7.698-4.038 4.05-20.838 16.991-21.417 17.44-.599.45-13.614 11.29-15.903 12.822-1.205.807-6.686 4.583-9.288 6.175-2.62 1.609-14.064 8.558-30.62 6.825-7.52-.788-15.089-4.077-17.504-5.16-11.551-5.25-24.855-17.904-24.855-17.904l.026.977c43.62 41.093 73.921 15.142 80.325 11.158 6.403-3.984 41.205-33.212 41.205-33.212 12.736-8.53 25.683-13.337 37.525-15.887Z"/>
    <path class="uuid-5145034e-b200-4b60-80e6-effb90823162" d="M283.612 215.947s-20.978-5.728-47.699-.066c-.147.02-.313.06-.46.097-11.842 2.55-24.789 7.357-37.525 15.887 0 0-34.802 29.228-41.205 33.212-6.404 3.984-36.706 29.935-80.325-11.158l-.348.11-2 .612s26.766 26.397 54.174 22.918c27.409-3.463 34.252-17.954 68.35-42.401 16.131-11.573 33.793-15.055 49.13-15.546l.166-.005c16.983-.526 31.104 2.603 37.183 2.409l.56-6.069Z"/>
    <path class="uuid-0f14aab2-565d-4934-a4f4-c9677dc8f12f" d="m76.399 253.919-.027-.977-1.924.658-.397 1.041 1.999-.611.349-.111z"/>
    <path class="uuid-407c1782-160e-4716-947b-656353b55e3f" d="M226.963 293.28s-17.012-41.632-39.932-45.586c0 0-1.383.256-2.35 1.003-.974.77-9.928 13.356-32.488 3.365-22.576-9.984-25.399-19.804-25.399-19.804s-1.965-9.26-6.13-12.213c-4.693-3.316-7.378-4.904-20.51-3.789l.431 1.403c.262-.126 8.232-1.296 10.308-.913 4.22.809 8.757 2.009 11.396 6.223 2.632 4.237 3.509 8.421 4.531 10.363 1.015 1.964 2.02 3.913 5.742 7.361 3.543 3.29 14.76 11.024 22.265 13.263 7.489 2.246 14.056 3.327 18.76 1.823 5.72-1.844 6.372-2.234 9.173-4.786 1.764-1.601 3.459-3.713 5.516-2.758 2.074.947 20.619 4.897 37.039 44.249l1.648.796Z"/>
    <path class="uuid-5145034e-b200-4b60-80e6-effb90823162" d="m226.963 293.28 1.543-2.581c4.385-6.52-32.98-53.702-45.637-41.725-12.674 11.984-37.86-1.63-48.283-9.052-10.433-7.438-4.654-14.125-14.05-21.445s-22.415-3.599-22.415-3.599l2.034 1.378c13.131-1.115 15.816.473 20.51 3.789 4.164 2.953 6.13 12.213 6.13 12.213s2.822 9.82 25.398 19.804c22.56 9.991 31.514-2.594 32.488-3.365.967-.747 2.35-1.003 2.35-1.003 22.92 3.954 39.932 45.586 39.932 45.586Z"/>
    <path class="uuid-0f14aab2-565d-4934-a4f4-c9677dc8f12f" d="m104.316 233.997-1.597-.264-2.303 1.035 1.704.078 2.196-.849z"/>
    <g>
      <path class="uuid-f79c1b9c-2ae4-41ad-a2ab-ee3af5dd353b" d="M98.544 276.119c5.596-.179 18.574 2.006 34.204 1.518-10.865-.17-32.23-2.207-32.23-2.207l-1.974.689Z"/>
      <path class="uuid-407c1782-160e-4716-947b-656353b55e3f" d="M142.315 280.209c14.322-2.324 23.461-6.18 24.876-6.754 3.586-1.475 9.57-4.094 11.554-5.669 3.737-2.966 19.264-12.47 19.8-12.8.553-.33 12.586-8.283 14.7-9.41 1.114-.594 6.176-3.37 8.579-4.543 2.42-1.185 12.986-6.303 28.212-5.147 6.917.526 13.865 2.867 16.081 3.639 10.603 3.742 22.78 12.85 22.78 12.85l-.02-.71c-39.925-29.575-67.945-10.539-73.858-7.605-5.913 2.933-38.09 24.377-38.09 24.377-11.764 6.274-23.703 9.846-34.614 11.772Z"/>
      <path class="uuid-5145034e-b200-4b60-80e6-effb90823162" d="M97.998 280.53s19.275 4.03 43.893-.248c.136-.016.289-.045.424-.073 10.91-1.926 22.85-5.498 34.614-11.772 0 0 32.177-21.444 38.09-24.377 5.913-2.934 33.933-21.97 73.858 7.605l.322-.082 1.843-.457s-24.493-19.006-49.733-16.309c-25.24 2.685-31.613 13.253-63.116 31.22-14.905 8.505-31.176 11.144-45.292 11.595l-.153.005c-15.63.488-28.609-1.697-34.204-1.518l-.546 4.41Z"/>
      <path class="uuid-0f14aab2-565d-4934-a4f4-c9677dc8f12f" d="m288.877 251.665.019.71 1.775-.49.371-.758-1.843.456-.322.082z"/>
    </g>
    <path class="uuid-407c1782-160e-4716-947b-656353b55e3f" d="M150.53 224.012s15.438 30.131 36.51 32.861c0 0 1.273-.194 2.166-.743.9-.566 9.206-9.762 29.914-2.645 20.723 7.11 23.27 14.226 23.27 14.226s1.76 6.713 5.577 8.832c4.302 2.379 6.764 3.516 18.854 2.624l-.39-1.016c-.24.093-7.58.992-9.49.727-3.879-.562-8.047-1.405-10.454-4.45-2.4-3.06-3.185-6.094-4.115-7.498-.924-1.42-1.84-2.83-5.246-5.31-3.244-2.368-13.525-7.915-20.42-9.495-6.88-1.585-12.917-2.329-17.253-1.208-5.273 1.375-5.876 1.663-8.466 3.533-1.632 1.174-3.203 2.718-5.091 2.037-1.903-.674-18.948-3.428-33.854-31.907l-1.513-.568Z"/>
    <path class="uuid-5145034e-b200-4b60-80e6-effb90823162" d="m150.53 224.012-1.434 1.884c-4.069 4.762 30.07 38.799 41.78 30.022 11.725-8.783 34.83.948 44.384 6.275 9.561 5.337 4.209 10.23 12.817 15.488 8.608 5.258 20.608 2.474 20.608 2.474l-1.864-.988c-12.09.892-14.552-.245-18.854-2.624-3.817-2.119-5.577-8.832-5.577-8.832s-2.547-7.115-23.27-14.226c-20.708-7.117-29.013 2.08-29.913 2.645-.894.549-2.168.743-2.168.743-21.07-2.73-36.51-32.861-36.51-32.861Z"/>
    <path class="uuid-0f14aab2-565d-4934-a4f4-c9677dc8f12f" d="m263.083 266.308 1.469.182 2.124-.766-1.567-.046-2.026.63z"/>
  </g>
  <g id="top">
    <path class="uuid-93f57b53-56d1-4cdd-8d0a-2d38747e2da1" d="M307.87 264.826c-19 22.58-62.93 39.5-114 39.5-53.25 0-98.43-18.37-116-42.5 23.66 17.25 67.07 36 117 36 47.04 0 88.58-17.38 113-33Z"/>
    <path class="uuid-86c99062-65cd-424b-b6bb-ade3b7ab5fd8" d="M317.87 233.24c0 11.297-3.59 22.049-10.07 31.8-24.42 19.78-65.89 32.786-112.93 32.786-49.93 0-93.57-14.652-117.23-36.497-5.02-8.738-7.77-18.21-7.77-28.088 0-44.412 55.52-80.415 124-80.415s124 36.003 124 80.415Z"/>
    <path class="uuid-93f57b53-56d1-4cdd-8d0a-2d38747e2da1" d="M98.251 228.442c-1.235 2.333-3.025 3.807-3.997 3.292s-.746-3.727 1.616-4.908c2-1 1.887-4.055 2.859-3.54s.758 2.824-.478 5.156ZM189.87 265.826c-.252 3.155-.122 5.91-1.437 5.805s-2.176-2.747-1.924-5.902 1.522-5.627 2.837-5.522.776 2.464.524 5.62ZM142.87 237.826c-.82 1.92-.87 3.392-1.67 3.05s-.784-2.174.035-4.095 2.133-3.2 2.933-2.86-.479 1.985-1.298 3.905ZM158.455 256.082c.718-.95 2.011-2.49 2.414-2.256s-.236 2.156-.954 3.107-1.628 1.53-2.031 1.295-.148-1.195.57-2.146ZM119.154 235.312c.402-1.598 1.306-2.823 2.019-2.738s.963 1.45.56 3.047-1.151 2.29-1.863 2.205-1.119-.917-.716-2.514ZM127.75 262.63c1.336-2.092 4.222-2.226 5.12-1.804s-1.665.908-3 3c-1.336 2.092-2.016 3.78-2.913 3.357s-.543-2.46.793-4.553ZM293.2 211.358c1.644 2.066 2.278 4.296 1.417 4.98s-1.366-1.846-3.01-3.911-3.802-2.884-2.941-3.57 2.89.435 4.534 2.501Z"/>
    <ellipse class="uuid-93f57b53-56d1-4cdd-8d0a-2d38747e2da1" cx="253.05" cy="269.62" rx="1.575" ry="3.781" transform="rotate(-23.786 253.05 269.62)"/>
    <ellipse class="uuid-93f57b53-56d1-4cdd-8d0a-2d38747e2da1" cx="217.824" cy="254.609" rx=".838" ry="2.16" transform="rotate(-8.583 217.822 254.608)"/>
    <ellipse class="uuid-93f57b53-56d1-4cdd-8d0a-2d38747e2da1" cx="269.659" cy="244.704" rx="1.286" ry="2.988" transform="rotate(-31.065 269.66 244.704)"/>
    <path class="uuid-93f57b53-56d1-4cdd-8d0a-2d38747e2da1" d="M239.886 232.42c1.501.872.335 3.096-.295 3.323s-1.52-.892-1.987-2.5-.336-3.096.294-3.323.486 1.63 1.988 2.5ZM111.89 206.621c-.712 1.575-1.82 2.612-2.476 2.315s-.64-2.404.853-3.273c1.266-.735 1.067-2.727 1.723-2.43s.611 1.813-.1 3.388ZM173.428 222.917c-.457 1.288-.429 2.252-.965 2.061s-.603-1.388-.146-2.677 1.261-2.18 1.798-1.989-.231 1.316-.687 2.605ZM140.83 210.25c.196-1.06.737-1.899 1.205-1.872s.69.907.492 1.968-.658 1.543-1.127 1.517-.768-.553-.57-1.613ZM266.878 190.956c1.159 1.282 1.665 2.713 1.131 3.196s-.969-1.15-2.127-2.432-2.603-1.728-2.069-2.211 1.907.165 3.065 1.447Z"/>
    <ellipse class="uuid-93f57b53-56d1-4cdd-8d0a-2d38747e2da1" cx="213.722" cy="224.156" rx="1.031" ry="2.475" transform="rotate(-27.389 213.722 224.156)"/>
    <ellipse class="uuid-93f57b53-56d1-4cdd-8d0a-2d38747e2da1" cx="200.089" cy="207.798" rx=".548" ry="1.414" transform="rotate(-12.186 200.089 207.798)"/>
    <ellipse class="uuid-93f57b53-56d1-4cdd-8d0a-2d38747e2da1" cx="243.549" cy="206.194" rx=".842" ry="1.956" transform="rotate(-34.669 243.55 206.194)"/>
    <path class="uuid-93f57b53-56d1-4cdd-8d0a-2d38747e2da1" d="M268.087 215.37c1.451.732.43 3.025-.157 3.302s-1.469-.75-1.97-2.297-.43-3.024.158-3.302.518 1.566 1.97 2.297ZM256.172 167.548c1.539.785 2.522 1.942 2.194 2.583s-2.432.526-3.228-1.008c-.675-1.299-2.673-1.194-2.346-1.836s1.84-.524 3.38.26ZM124.091 172.51c1.59-.678 3.108-.69 3.39-.027s-1.156 2.203-2.844 1.83c-1.43-.315-2.631 1.285-2.913.623s.777-1.749 2.367-2.426Z"/>
  </g>
</svg>