<?xml version="1.0" encoding="UTF-8"?>
<svg id="uuid-85dc1c35-1f32-4aab-958f-d30c2a6c3da8" data-name="uuid-316cc30a-931d-4b08-b371-77946d3e098c" xmlns="http://www.w3.org/2000/svg" viewBox="0 0 400 400">
  <defs>
    <style>
      .uuid-b626a0ca-25f2-440c-b140-87ab7e082d26 {
        fill: none;
        stroke: #459993;
        stroke-miterlimit: 10;
      }

      .uuid-1bd867a2-1388-4006-9cbd-b579f13b15b2 {
        fill: #459993;
      }
    </style>
  </defs>
  <path class="uuid-1bd867a2-1388-4006-9cbd-b579f13b15b2" d="M205.5,22.5v9s-10,2-26,0v-9h26Z"/>
  <path class="uuid-b626a0ca-25f2-440c-b140-87ab7e082d26" d="M202.5,31.5l1,3.17c8.8,3.57,16.05,11.32,20.2,21.33,.22,.53,.43,1.07,.64,1.61l1.89,6.39,7.63,25.74,8.25,27.84c-.17,1.96-.48,3.88-.92,5.73-.79,3.31-1.97,6.42-3.51,9.26-2.88,5.35-6.98,9.73-11.85,12.62,.08,.59,.12,1.19,.12,1.81,0,2.4-.59,4.64-1.62,6.52,12.34,12.31,20.32,31.91,20.32,53.98v74.5c0,1.03-.11,2.04-.32,3h.83c3.21,0,5.84,3.15,5.84,7,0,1.92-.66,3.68-1.72,4.94-.71,.85-1.6,1.49-2.6,1.81,1.38,7.47,2.14,15.66,2.14,24.25,0,35.08-12.69,63.52-28.35,63.52-4.8199,0-9.36-2.7-13.34-7.48-3.97,4.78-8.52,7.48-13.35,7.48-5.07,0-9.83-2.98-13.94-8.2-3.82,4.31-8.14,6.73-12.7,6.73-15.66,0-28.35-28.44-28.35-63.52,0-8.0601,.67-15.78,1.89-22.8701-2.36-.9-4.07-3.55-4.07-6.66,0-1.92,.66-3.68,1.72-4.94,1.06-1.27,2.51-2.06,4.12-2.06h.83c-.21-.96-.32-1.97-.32-3v-74.5c0-22.07,7.98-41.67,20.32-53.98-1.03-1.88-1.6201-4.12-1.6201-6.52,0-.18-.11-1.32-.09-1.5-5.59-2.62-10.24-6.17-13.58-11.9-1.8-3.11-3.2-6.58-4.07-10.29-.45-1.85-.76-3.77-.92-5.73l8.25-27.85,7.26-24.51,2.57-8.6899c.07-.1801,.14-.35,.22-.53,4.15-10.01,11.4-17.76,20.2-21.33l1-3.17"/>
  <path class="uuid-1bd867a2-1388-4006-9cbd-b579f13b15b2" d="M142.96,207.5s50.84,16,101.69,0l.5099,77.5s-46.7599,27.5-102.71,0l.51-77.5Z"/>
  <path class="uuid-b626a0ca-25f2-440c-b140-87ab7e082d26" d="M140.68,298.66s54.68,24.84,106,.09"/>
  <path class="uuid-b626a0ca-25f2-440c-b140-87ab7e082d26" d="M163.28,153.52s29.88,10.02,61.05,0"/>
  <path class="uuid-b626a0ca-25f2-440c-b140-87ab7e082d26" d="M161.57,145.5s33.59,10.38,64.26-.31"/>
</svg>