<?xml version="1.0" encoding="UTF-8"?>
<svg id="Warstwa_3" data-name="Warstwa 3" xmlns="http://www.w3.org/2000/svg" viewBox="0 0 565.5 565.5">
  <defs>
    <style>
      .cls-1, .cls-2, .cls-3, .cls-4 {
        fill: none;
        stroke-miterlimit: 10;
      }

      .cls-1, .cls-3 {
        stroke: #3aaa35;
      }

      .cls-2, .cls-3 {
        stroke-width: 3px;
      }

      .cls-2, .cls-4 {
        stroke: #063;
      }
    </style>
  </defs>
  <g id="bigger">
    <g id="_36" data-name="36">
      <polyline class="cls-1" points="236.8 222.8 236.8 179.2 217.1 159.5 174.8 159.5 155.9 140.6 141.9 140.6 123.8 122.5"/>
      <circle class="cls-1" cx="121.1" cy="119.4" r="3.5"/>
    </g>
    <g id="_35" data-name="35">
      <circle class="cls-1" cx="80" cy="50.2" r="3.5"/>
      <polyline class="cls-1" points="222.6 236.7 181.2 236.7 170 225.6 128 225.6 113.6 211.3 113.6 141 99.7 127.1 99.7 70.1 82.5 52.6"/>
    </g>
    <g id="_34" data-name="34">
      <circle class="cls-1" cx="124.6" cy="58.1" r="3.5"/>
      <polyline class="cls-1" points="248.5 222.8 248.5 170.7 217.1 139.8 184.3 139.8 140.2 96.4 140.2 72.9 127 60.7"/>
    </g>
    <g id="_33" data-name="33">
      <circle class="cls-1" cx="39.3" cy="92.9" r="3.5"/>
      <polyline class="cls-1" points="222.6 248.5 156.1 248.5 144 236.7 106.2 236.7 88.1 218.5 88.1 164.4 78.8 155 50.7 155 39.3 143.4 39.3 96.4"/>
    </g>
    <g id="_32" data-name="32">
      <circle class="cls-1" cx="145.6" cy="30.8" r="3.5"/>
      <polyline class="cls-1" points="260.1 222.8 260.1 160.3 233.2 133.9 233.2 119 223.9 109.7 182.7 109.7 163.2 90.2 163.2 48.7 147.9 33.4"/>
    </g>
    <g id="_31" data-name="31">
      <circle class="cls-1" cx="193.5" cy="19.4" r="3.5"/>
      <polyline class="cls-1" points="271.4 222.8 271.4 148.6 251.5 128.7 251.5 105.8 238.2 92.5 212.5 92.5 193.8 73.8 193.8 22.9"/>
    </g>
    <g id="_30" data-name="30">
      <circle class="cls-1" cx="252.4" cy="48.7" r="3.5"/>
      <polyline class="cls-1" points="282.9 222.8 282.9 133.3 267.2 117.7 267.2 79.2 252.6 64.6 252.6 52.2"/>
    </g>
    <g id="_29" data-name="29">
      <circle class="cls-1" cx="268.6" cy="9" r="3.5"/>
      <polyline class="cls-1" points="294.6 222.8 294.6 114.1 280.1 99.6 280.1 48.7 267.9 36.5 267.9 12.5"/>
    </g>
    <g id="_28" data-name="28">
      <circle class="cls-1" cx="311.4" cy="39.3" r="3.5"/>
      <polyline class="cls-1" points="306.4 222.8 306.4 134.5 325.6 115.2 325.6 84 311.4 69.8 311.4 42.8"/>
    </g>
    <g id="_27" data-name="27">
      <circle class="cls-1" cx="355.8" cy="29.2" r="3.5"/>
      <polyline class="cls-1" points="317.7 222.8 317.7 156.6 328.8 145.5 357.9 145.5 368.6 134.9 368.6 94.5 355.7 81.6 355.7 32.7"/>
    </g>
    <g id="_26" data-name="26">
      <circle class="cls-1" cx="405.7" cy="86.2" r="3.5"/>
      <polyline class="cls-1" points="329.6 222.8 329.6 175.3 340.2 164.7 376.7 164.7 389.5 151.8 389.5 102.1 403.1 88.5"/>
    </g>
    <g id="_25" data-name="25">
      <circle class="cls-1" cx="28" cy="185.5" r="3.5"/>
      <polyline class="cls-1" points="222.6 259.8 139.9 259.8 129.2 270.5 67.7 270.5 45.3 248.2 45.3 202.5 30.6 187.8"/>
    </g>
    <g id="_24" data-name="24">
      <circle class="cls-1" cx="14.4" cy="223.3" r="3.5"/>
      <polyline class="cls-1" points="222.6 271.7 155.8 271.7 140.7 286.8 54.1 286.8 40.1 272.9 23.2 272.9 13.8 263.5 13.8 226.8"/>
    </g>
    <g id="_23" data-name="23">
      <circle class="cls-1" cx="16.1" cy="389" r="3.5"/>
      <polyline class="cls-1" points="222.6 283 159.5 283 141 301.6 61.7 301.6 45.8 317.5 28.3 317.5 15.9 329.9 15.9 385.5"/>
    </g>
    <g id="_22" data-name="22">
      <circle class="cls-1" cx="40.4" cy="495.8" r="3.5"/>
      <polyline class="cls-1" points="222.6 294.3 165.5 294.3 146.6 313.2 75.6 313.2 65.2 323.6 65.2 352.2 48.6 368.8 48.6 417.1 27.3 438.4 27.3 482 38.3 493"/>
    </g>
    <g id="_21" data-name="21">
      <circle class="cls-1" cx="69.2" cy="441.8" r="3.5"/>
      <polyline class="cls-1" points="222.6 306.5 168.6 306.5 144.5 330.6 97.1 330.6 85 342.8 85 426.2 71.7 439.4"/>
    </g>
    <g id="_20" data-name="20">
      <circle class="cls-1" cx="124.3" cy="452.9" r="3.5"/>
      <polyline class="cls-1" points="222.6 318.2 173.4 318.2 143.9 347.6 119.2 347.6 107.9 359 107.9 412 123.9 428 123.9 449.4"/>
    </g>
    <g id="_19" data-name="19">
      <circle class="cls-1" cx="142.6" cy="485.5" r="3.5"/>
      <polyline class="cls-1" points="222.6 329.8 176.2 329.8 142.3 363.8 142.3 393.7 158.6 410 158.6 469.8 145.2 483.2"/>
    </g>
    <g id="_18" data-name="18">
      <circle class="cls-1" cx="187" cy="545.3" r="3.5"/>
      <polyline class="cls-1" points="233.4 343.3 233.4 381.8 220.3 394.9 197.1 394.9 184.5 407.5 184.5 452.9 171.7 465.7 171.7 500 187 515.2 187 541.8"/>
    </g>
    <g id="_17" data-name="17">
      <circle class="cls-1" cx="209.5" cy="521.1" r="3.5"/>
      <polyline class="cls-1" points="245 343.3 245 393.7 226.6 412 211.2 412 198.2 425.1 198.2 477.6 209.6 489 209.6 517.6"/>
    </g>
    <g id="_16" data-name="16">
      <circle class="cls-1" cx="240.3" cy="545.3" r="3.5"/>
      <polyline class="cls-1" points="257 343.3 257 409.5 238.2 428.3 226.8 428.3 217.1 438 217.1 468.3 229 480.2 229 511.6 240.5 523 240.5 541.8"/>
    </g>
    <g id="_15" data-name="15">
      <circle class="cls-1" cx="261.1" cy="521.1" r="3.5"/>
      <polyline class="cls-1" points="268.1 343.3 268.1 420.5 245.7 442.9 245.7 475.2 260.9 490.5 260.9 517.6"/>
    </g>
    <g id="_14" data-name="14">
      <circle class="cls-1" cx="279.4" cy="555.2" r="3.5"/>
      <polyline class="cls-1" points="280 343.3 280 438.1 292.3 450.4 292.3 486.8 279.2 499.9 279.2 551.7"/>
    </g>
    <g id="_13" data-name="13">
      <circle class="cls-1" cx="318.5" cy="532.2" r="3.5"/>
      <polyline class="cls-1" points="291.6 343.3 291.6 422.6 309.4 440.4 309.4 495.8 318.4 504.8 318.4 528.7"/>
    </g>
    <g id="_12" data-name="12">
      <circle class="cls-1" cx="344" cy="509.3" r="3.5"/>
      <polyline class="cls-1" points="303.2 343.3 303.2 413.7 328.4 438.9 328.4 473.2 344.1 488.9 344.1 505.8"/>
    </g>
    <g id="_11" data-name="11">
      <circle class="cls-1" cx="426.3" cy="533" r="3.5"/>
      <polyline class="cls-1" points="315 343.3 315 404.1 340.4 429.4 340.4 459.1 359.2 477.9 390.3 477.9 406.5 494.1 406.5 513.8 423.6 530.8"/>
    </g>
    <g id="_10" data-name="10">
      <circle class="cls-1" cx="489.8" cy="486.8" r="3.5"/>
      <polyline class="cls-1" points="325.9 343.3 325.9 393.7 357.1 424.8 357.1 444 368.3 455.3 411.2 455.3 442.4 486.5 486.3 486.5"/>
    </g>
    <g id="_9" data-name="9">
      <circle class="cls-1" cx="533.6" cy="454.3" r="3.5"/>
      <polyline class="cls-1" points="343.1 329.8 383.5 329.8 392.3 338.7 392.3 402.5 403.9 414.2 442 414.2 453.3 425.4 504.4 425.4 531.1 452"/>
    </g>
    <g id="_8" data-name="8">
      <circle class="cls-1" cx="533.6" cy="380.3" r="3.5"/>
      <polyline class="cls-1" points="343.1 318.2 400.8 318.2 416.2 333.5 416.2 376.8 430.9 391.4 474.9 391.4 486.2 380.2 530.1 380.2"/>
    </g>
    <g id="_7" data-name="7">
      <circle class="cls-1" cx="544.2" cy="342" r="3.5"/>
      <polyline class="cls-1" points="343.1 306.5 416.7 306.5 437.9 327.7 437.9 343.3 453.7 359.1 507.8 359.1 524.9 342.1 540.8 342"/>
    </g>
    <g id="_6" data-name="6">
      <circle class="cls-1" cx="523.2" cy="310" r="3.5"/>
      <polyline class="cls-1" points="343.1 294.3 430.7 294.3 457.6 321.2 492.3 321.2 503.8 309.7 519.7 310"/>
    </g>
    <g id="_5" data-name="5">
      <circle class="cls-1" cx="548.9" cy="284.8" r="3.5"/>
      <polyline class="cls-1" points="343.1 283 450.7 283 464.7 269.1 498.4 269.1 513.8 284.5 545.4 284.5"/>
    </g>
    <g id="_4" data-name="4">
      <circle class="cls-1" cx="550.6" cy="160.1" r="3.5"/>
      <polyline class="cls-1" points="343.1 271.5 429.5 271.5 445.5 255.5 472.3 255.5 487.1 240.8 515 240.8 530.9 224.9 530.9 179.8 548.1 162.6"/>
    </g>
    <g id="_3" data-name="3">
      <circle class="cls-1" cx="520.5" cy="61.3" r="3.5"/>
      <polyline class="cls-1" points="343.1 259.8 420.3 259.8 438 242 438 218.7 451.9 204.8 490.7 204.8 506 189.6 506 130.5 520.5 116 520.5 64.8"/>
    </g>
    <g id="_2" data-name="2">
      <circle class="cls-1" cx="487.2" cy="99.9" r="3.5"/>
      <polyline class="cls-1" points="343.1 248.1 409.2 248.1 423.1 234.2 423.1 198 438.6 182.5 466 182.5 475.4 173.1 475.4 112.1 484.9 102.5"/>
    </g>
    <g id="_1" data-name="1">
      <circle class="cls-1" cx="442.6" cy="29.2" r="3.5"/>
      <polyline class="cls-1" points="343.1 236.2 397.6 236.2 408.9 224.9 408.9 135.6 422.3 122.2 445.6 122.2 457.2 110.7 457.2 68.4 442.2 53.4 442.2 32.7"/>
    </g>
    <rect class="cls-3" x="222.6" y="222.8" width="120.6" height="120.6"/>
  </g>
  <g id="smaller">
    <g id="_36-2" data-name="36">
      <polyline class="cls-4" points="251 241.1 251 211 237.4 197.5 208.2 197.5 195.1 184.4 185.5 184.4 173 171.9"/>
      <circle class="cls-4" cx="171.1" cy="169.8" r="2.4"/>
    </g>
    <g id="_35-2" data-name="35">
      <circle class="cls-4" cx="142.8" cy="122" r="2.4"/>
      <polyline class="cls-4" points="241.1 250.7 212.6 250.7 204.8 243.1 175.9 243.1 165.9 233.2 165.9 184.7 156.3 175.1 156.3 135.8 144.5 123.7"/>
    </g>
    <g id="_34-2" data-name="34">
      <circle class="cls-4" cx="173.5" cy="127.5" r="2.4"/>
      <polyline class="cls-4" points="259 241.1 259 205.2 237.4 183.9 214.7 183.9 184.3 153.9 184.3 137.7 175.2 129.3"/>
    </g>
    <g id="_33-2" data-name="33">
      <circle class="cls-4" cx="114.7" cy="151.5" r="2.4"/>
      <polyline class="cls-4" points="241.1 258.9 195.3 258.9 186.9 250.7 160.8 250.7 148.3 238.2 148.3 200.9 141.9 194.3 122.5 194.3 114.7 186.4 114.7 153.9"/>
    </g>
    <g id="_32-2" data-name="32">
      <circle class="cls-4" cx="188" cy="108.7" r="2.4"/>
      <polyline class="cls-4" points="267.1 241.1 267.1 198 248.5 179.8 248.5 169.5 242.1 163.1 213.6 163.1 200.2 149.7 200.2 121 189.6 110.4"/>
    </g>
    <g id="_31-2" data-name="31">
      <circle class="cls-4" cx="221.1" cy="100.8" r="2.4"/>
      <polyline class="cls-4" points="274.8 241.1 274.8 190 261.1 176.2 261.1 160.4 251.9 151.3 234.2 151.3 221.3 138.3 221.3 103.2"/>
    </g>
    <g id="_30-2" data-name="30">
      <circle class="cls-4" cx="261.7" cy="121" r="2.4"/>
      <polyline class="cls-4" points="282.7 241.1 282.7 179.4 272 168.6 272 142 261.9 132 261.9 123.4"/>
    </g>
    <g id="_29-2" data-name="29">
      <circle class="cls-4" cx="272.9" cy="93.6" r="2.4"/>
      <polyline class="cls-4" points="290.9 241.1 290.9 166.2 280.8 156.1 280.8 121 272.4 112.6 272.4 96"/>
    </g>
    <g id="_28-2" data-name="28">
      <circle class="cls-4" cx="302.4" cy="114.5" r="2.4"/>
      <polyline class="cls-4" points="299 241.1 299 180.2 312.3 166.9 312.3 145.4 302.4 135.6 302.4 116.9"/>
    </g>
    <g id="_27-2" data-name="27">
      <circle class="cls-4" cx="333.1" cy="107.5" r="2.4"/>
      <polyline class="cls-4" points="306.8 241.1 306.8 195.5 314.4 187.8 334.6 187.8 341.9 180.5 341.9 152.6 333 143.7 333 110"/>
    </g>
    <g id="_26-2" data-name="26">
      <circle class="cls-4" cx="367.5" cy="146.9" r="2.4"/>
      <polyline class="cls-4" points="315 241.1 315 208.4 322.3 201 347.5 201 356.3 192.2 356.3 157.9 365.7 148.5"/>
    </g>
    <g id="_25-2" data-name="25">
      <circle class="cls-4" cx="106.8" cy="215.4" r="2.4"/>
      <polyline class="cls-4" points="241.1 266.7 184.1 266.7 176.7 274.1 134.2 274.1 118.8 258.7 118.8 227.2 108.7 217"/>
    </g>
    <g id="_24-2" data-name="24">
      <circle class="cls-4" cx="97.4" cy="241.5" r="2.4"/>
      <polyline class="cls-4" points="241.1 274.9 195.1 274.9 184.6 285.4 124.8 285.4 115.2 275.7 103.5 275.7 97 269.2 97 243.9"/>
    </g>
    <g id="_23-2" data-name="23">
      <circle class="cls-4" cx="98.6" cy="355.9" r="2.4"/>
      <polyline class="cls-4" points="241.1 282.7 197.6 282.7 184.8 295.5 130.1 295.5 119.1 306.5 107 306.5 98.5 315.1 98.5 353.4"/>
    </g>
    <g id="_22-2" data-name="22">
      <circle class="cls-4" cx="115.4" cy="429.6" r="2.4"/>
      <polyline class="cls-4" points="241.1 290.5 201.7 290.5 188.7 303.6 139.7 303.6 132.5 310.8 132.5 330.5 121 341.9 121 375.3 106.3 390 106.3 420.1 113.9 427.7"/>
    </g>
    <g id="_21-2" data-name="21">
      <circle class="cls-4" cx="135.3" cy="392.3" r="2.4"/>
      <polyline class="cls-4" points="241.1 299 203.9 299 187.2 315.6 154.6 315.6 146.2 324 146.2 381.5 137 390.7"/>
    </g>
    <g id="_20-2" data-name="20">
      <circle class="cls-4" cx="173.3" cy="400" r="2.4"/>
      <polyline class="cls-4" points="241.1 307 207.2 307 186.8 327.3 169.8 327.3 162 335.1 162 371.7 173 382.8 173 397.5"/>
    </g>
    <g id="_19-2" data-name="19">
      <circle class="cls-4" cx="185.9" cy="422.5" r="2.4"/>
      <polyline class="cls-4" points="241.1 315 209.2 315 185.7 338.4 185.7 359.1 197 370.4 197 411.7 187.7 420.9"/>
    </g>
    <g id="_18-2" data-name="18">
      <circle class="cls-4" cx="216.6" cy="463.7" r="2.4"/>
      <polyline class="cls-4" points="248.6 324.3 248.6 350.9 239.5 359.9 223.6 359.9 214.9 368.6 214.9 400 206 408.8 206 432.5 216.6 443 216.6 461.3"/>
    </g>
    <g id="_17-2" data-name="17">
      <circle class="cls-4" cx="232.1" cy="447.1" r="2.4"/>
      <polyline class="cls-4" points="256.6 324.3 256.6 359.1 243.9 371.8 233.3 371.8 224.3 380.8 224.3 417 232.2 424.9 232.2 444.6"/>
    </g>
    <g id="_16-2" data-name="16">
      <circle class="cls-4" cx="253.4" cy="463.7" r="2.4"/>
      <polyline class="cls-4" points="264.9 324.3 264.9 370 251.9 383 244 383 237.4 389.7 237.4 410.6 245.6 418.8 245.6 440.5 253.5 448.4 253.5 461.3"/>
    </g>
    <g id="_15-2" data-name="15">
      <circle class="cls-4" cx="267.7" cy="447.1" r="2.4"/>
      <polyline class="cls-4" points="272.5 324.3 272.5 377.6 257.1 393.1 257.1 415.4 267.6 425.9 267.6 444.6"/>
    </g>
    <g id="_14-2" data-name="14">
      <circle class="cls-4" cx="280.3" cy="470.6" r="2.4"/>
      <polyline class="cls-4" points="280.8 324.3 280.8 389.7 289.3 398.2 289.3 423.3 280.2 432.4 280.2 468.1"/>
    </g>
    <g id="_13-2" data-name="13">
      <circle class="cls-4" cx="307.4" cy="454.7" r="2.4"/>
      <polyline class="cls-4" points="288.8 324.3 288.8 379.1 301.1 391.4 301.1 429.6 307.3 435.8 307.3 452.3"/>
    </g>
    <g id="_12-2" data-name="12">
      <circle class="cls-4" cx="324.9" cy="438.9" r="2.4"/>
      <polyline class="cls-4" points="296.8 324.3 296.8 372.9 314.2 390.3 314.2 414 325 424.8 325 436.5"/>
    </g>
    <g id="_11-2" data-name="11">
      <circle class="cls-4" cx="381.7" cy="455.3" r="2.4"/>
      <polyline class="cls-4" points="304.9 324.3 304.9 366.3 322.4 383.8 322.4 404.2 335.4 417.2 356.9 417.2 368.1 428.4 368.1 442 379.9 453.8"/>
    </g>
    <g id="_10-2" data-name="10">
      <circle class="cls-4" cx="425.6" cy="423.3" r="2.4"/>
      <polyline class="cls-4" points="312.5 324.3 312.5 359.1 334 380.6 334 393.8 341.7 401.6 371.3 401.6 392.9 423.1 423.1 423.1"/>
    </g>
    <g id="_9-2" data-name="9">
      <circle class="cls-4" cx="455.8" cy="401" r="2.4"/>
      <polyline class="cls-4" points="324.3 315 352.2 315 358.3 321.1 358.3 365.2 366.3 373.2 392.6 373.2 400.4 381 435.7 381 454 399.4"/>
    </g>
    <g id="_8-2" data-name="8">
      <circle class="cls-4" cx="455.8" cy="349.8" r="2.4"/>
      <polyline class="cls-4" points="324.3 307 364.2 307 374.8 317.6 374.8 347.4 384.9 357.5 415.3 357.5 423.1 349.8 453.4 349.8"/>
    </g>
    <g id="_7-2" data-name="7">
      <circle class="cls-4" cx="463.1" cy="323.4" r="2.4"/>
      <polyline class="cls-4" points="324.3 298.9 375.1 298.9 389.8 313.6 389.8 324.3 400.7 335.3 438 335.3 449.8 323.5 460.7 323.4"/>
    </g>
    <g id="_6-2" data-name="6">
      <circle class="cls-4" cx="448.6" cy="301.3" r="2.4"/>
      <polyline class="cls-4" points="324.3 290.5 384.8 290.5 403.3 309.1 427.3 309.1 435.2 301.2 446.2 301.3"/>
    </g>
    <g id="_5-2" data-name="5">
      <circle class="cls-4" cx="466.3" cy="284" r="2.4"/>
      <polyline class="cls-4" points="324.3 282.7 398.6 282.7 408.2 273.1 431.5 273.1 442.1 283.8 463.9 283.8"/>
    </g>
    <g id="_4-2" data-name="4">
      <circle class="cls-4" cx="467.5" cy="197.9" r="2.4"/>
      <polyline class="cls-4" points="324.3 274.8 384 274.8 395 263.7 413.5 263.7 423.7 253.6 443 253.6 453.9 242.6 453.9 211.5 465.8 199.6"/>
    </g>
    <g id="_3-2" data-name="3">
      <circle class="cls-4" cx="446.8" cy="129.7" r="2.4"/>
      <polyline class="cls-4" points="324.3 266.7 377.6 266.7 389.8 254.4 389.8 238.3 399.4 228.8 426.2 228.8 436.8 218.2 436.8 177.5 446.8 167.4 446.8 132.1"/>
    </g>
    <g id="_2-2" data-name="2">
      <circle class="cls-4" cx="423.8" cy="156.3" r="2.4"/>
      <polyline class="cls-4" points="324.3 258.7 369.9 258.7 379.5 249 379.5 224 390.2 213.3 409.1 213.3 415.6 206.8 415.6 164.7 422.2 158.1"/>
    </g>
    <g id="_1-2" data-name="1">
      <circle class="cls-4" cx="393" cy="107.5" r="2.4"/>
      <polyline class="cls-4" points="324.3 250.4 362 250.4 369.8 242.6 369.8 181 379 171.8 395.1 171.8 403.1 163.8 403.1 134.6 392.7 124.2 392.7 110"/>
    </g>
    <rect class="cls-2" x="241.1" y="241.1" width="83.2" height="83.2"/>
  </g>
</svg>