<svg id="Warstwa_1" data-name="Warstwa 1" xmlns="http://www.w3.org/2000/svg" viewBox="0 0 300 300">
  <defs>
    <style>
      .cls-1{fill:#146d38}.cls-2{fill:#ddddd7}.cls-3{fill:#909190}.cls-4{fill:#2db564}.cls-5{fill:#c2c4c3}.cls-6{fill:#acb7af}.cls-7{fill:#21a556}.cls-8{fill:#848c86}.cls-9{fill:#8cf4b6}.cls-10{fill:#b7bcb9}.cls-11{fill:#9da09e}.cls-12{fill:#c6ccc9}.cls-13{fill:#7d827e}.cls-14{fill:#979b98}
    </style>
  </defs>
  <g id="scissors">
    <path class="cls-8" d="m132.328 95.969-34.152 47.532-3.296-2.368 37.448-45.164z"/>
    <path class="cls-7" d="M98.308 162.19c.177-.784.305-1.554.379-2.289.314-3.222-.401-5.805-2.25-7.133a4.82 4.82 0 0 0-1.876-.806 7.032 7.032 0 0 0-2.448-.023l6.063-8.438-5.196-3.733-.46.52-2.602 3.621-.377-.27 1.493-1.674 1.486-1.678.403-.56-4.182-3.005-1.705 1.62-2.091 1.994-.214.204-3.457 3.29a10.493 10.493 0 0 0-1.034-1.95 9.698 9.698 0 0 0-2.386-2.464c-1.37-.985-2.94-1.571-4.63-1.775a12.411 12.411 0 0 0-2.585-.048c-5.19.457-10.962 3.957-15.1 9.715-6.266 8.722-6.428 19.319-.365 23.675 6.062 4.356 16.053.822 22.32-7.9.257-.358.507-.72.745-1.09-.11.179-.22.359-.33.526l-.012.016-.017.024c-.135.174-.257.345-.386.524-6.267 8.722-7.939 18.233-3.738 21.251s12.688-1.596 18.955-10.318c2.877-4.004 4.788-8.184 5.597-11.826Zm-40.223 4.74c-4.054-2.913-3.568-10.53 1.088-17.011 4.65-6.473 11.715-9.364 15.77-6.45.969.696 1.677 1.66 2.128 2.822 1.454 3.667.32 9.255-3.217 14.176-4.656 6.481-11.714 9.377-15.769 6.463Zm18.583 13.352c-2.812-2.02-1.312-8.91 3.344-15.39 3.28-4.564 7.25-7.708 10.29-8.455a5.263 5.263 0 0 1 1.167-.171c.796-.031 1.49.147 2.056.554.835.6 1.287 1.627 1.392 2.933.256 3.128-1.457 7.893-4.73 12.45-4.657 6.48-10.708 10.1-13.52 8.08Z"/>
    <path class="cls-6" d="m132.095 95.715-.018.024-26.169 29.467-12.928 14.562-4.239-3.046 14.273-13.596 5.827-5.553 23.07-21.978.035-.036.149.156z"/>
    <path class="cls-13" d="M132.328 95.969 94.88 141.133l-1.9-1.365 12.928-14.562 26.169-29.467.251.23z"/>
    <path class="cls-14" d="m132.077 95.739-26.169 29.467-12.928 14.562-.46.519.403-.56-4.182-3.005 14.273-13.596 5.827-5.553 23.07-21.978.166.144z"/>
    <path class="cls-1" d="M89.725 143.77a579.882 579.882 0 0 1-12.447 19.655 579.725 579.725 0 0 1 12.447-19.654Z"/>
  </g>
  <g id="tape">
    <path class="cls-4" d="M219.68 110.814c-16.335 0-29.589 13.253-29.589 29.601 0 16.336 13.254 29.589 29.59 29.589 16.347 0 29.588-13.254 29.588-29.589 0-16.348-13.24-29.601-29.589-29.601Zm0 46.101c-9.106 0-16.5-7.394-16.5-16.5 0-9.119 7.394-16.5 16.5-16.5 9.12 0 16.5 7.381 16.5 16.5 0 9.106-7.38 16.5-16.5 16.5Z"/>
    <path class="cls-7" d="M219.68 112.551c-15.384 0-27.851 12.48-27.851 27.864s12.467 27.852 27.851 27.852 27.864-12.468 27.864-27.852-12.48-27.864-27.864-27.864Zm0 44.364c-9.106 0-16.5-7.394-16.5-16.5 0-9.119 7.394-16.5 16.5-16.5 9.12 0 16.5 7.381 16.5 16.5 0 9.106-7.38 16.5-16.5 16.5Z"/>
    <path class="cls-4" d="M219.68 122.114c-10.108 0-18.3 8.193-18.3 18.301s8.192 18.301 18.3 18.301 18.301-8.193 18.301-18.3-8.193-18.302-18.3-18.302Zm0 34.801c-9.106 0-16.5-7.394-16.5-16.5 0-9.119 7.394-16.5 16.5-16.5 9.12 0 16.5 7.381 16.5 16.5 0 9.106-7.38 16.5-16.5 16.5Z"/>
    <path class="cls-9" d="m214.624 161.47-1.473 4.342-.915-.31 1.473-4.342-1.64-.556.276-.812 4.268 1.446-.275.814-1.714-.581ZM218.752 166.83l-.283-1.14-1.856-.19-.489 1.06-1.068-.11 2.721-5.267.421.043 1.615 5.712-1.061-.109Zm-.934-3.97-.856 1.933 1.302.134-.446-2.067ZM221.977 164.689l.301 1.98-.955.144-.816-5.377a53.644 53.644 0 0 1 1.11-.21c.85-.13 1.491-.093 1.924.108s.691.578.775 1.132c.188 1.234-.446 1.962-1.901 2.182-.107.017-.253.03-.437.04Zm-.39-2.572.262 1.723c.165-.007.293-.018.386-.032.436-.067.743-.188.922-.364.179-.176.243-.428.194-.756-.085-.559-.578-.77-1.476-.633-.1.015-.196.036-.287.062ZM225.69 161.158l.488 1.177 1.66-.69.315.758-1.66.69.625 1.507 2.279-.946.329.792-3.171 1.317-2.087-5.028 3.209-1.332.329.793-2.316.962Z"/>
  </g>
  <g id="bandage">
    <path class="cls-12" d="M169.175 192.974c-4.742 2.075-9.807.996-11.294-2.42-.04-.091-.074-.17-.086-.249l-.026.011-23.056-52.7 17.205-7.53 23.066 52.704-.04.017c.042.06.086.14.12.219 1.496 3.42-1.134 7.867-5.889 9.948Z"/>
    <ellipse class="cls-10" cx="143.314" cy="133.876" rx="9.382" ry="6.75" transform="rotate(-23.637 143.314 133.876)"/>
    <path class="cls-10" d="M156.997 141.693s.585 5.784-.518 7.174-4.066 6.112-3.31 8.649 3.798 14.091 6.518 15.015 6.016 1.092 7.574 2.122 5.328-.016 5.82.876c0 0-14.25-33.632-16.084-33.836Z"/>
    <path class="cls-11" d="M140.817 128.171c-3.379 1.466-6.934 5.257-5.376 9.15 3.857 7.203 18.418.83 15.745-6.89-1.804-3.787-6.998-3.746-10.37-2.26Zm0 0c3.392-1.535 8.61-1.62 10.484 2.21 2.835 7.974-12.039 14.482-15.974 6.99-1.54-3.976 2.06-7.748 5.49-9.2Z"/>
    <path class="cls-11" d="M141.012 128.616c-3.114 1.353-6.39 4.848-4.952 8.435 3.553 6.629 16.965.758 14.507-6.35-1.66-3.489-6.448-3.453-9.555-2.085Zm0 0c3.128-1.417 7.939-1.497 9.67 2.035 2.58 7.395-11.055 13.361-14.736 6.45-1.42-3.67 1.902-7.147 5.066-8.485Z"/>
    <path class="cls-11" d="M141.243 129.144c-8.484 4.039-4.638 12.941 4.092 9.35 8.563-3.982 4.626-12.84-4.092-9.35Zm0 0c2.815-1.277 7.145-1.352 8.706 1.828 2.33 6.666-9.955 12.041-13.27 5.808-1.276-3.305 1.715-6.433 4.564-7.636Z"/>
    <path class="cls-5" d="M160.288 158.375s-4.665 6.17-14.471 4.621l2.17 4.96s9.395 2.413 14.33-5.137l-2.03-4.444Z"/>
    <path class="cls-3" d="m160.238 159.483 1.698 3.354c.23.455.62.509.864.119l1.796-2.875c.244-.39.255-1.085.025-1.54l-1.699-3.355c-.23-.455-.62-.509-.864-.119l-1.796 2.875c-.244.39-.255 1.086-.024 1.54Zm1.797-3.232c.248-.397.634-.336.864.119l1.053 2.079c.234.464.224 1.143-.025 1.54l-1.113 1.782c-.243.39-.63.345-.864-.119l-1.052-2.079c-.23-.455-.22-1.15.024-1.54l1.113-1.782Z"/>
    <path class="cls-10" d="M154.612 136.243c-2.026 6.362-8.06 9.506-14.506 8.436-.856-.169-1.703-.38-2.552-.568.859.148 1.712.32 2.568.447 6.358.933 12.247-2.195 14.49-8.315Z"/>
    <path class="cls-10" d="M156.417 140.409c-2.027 6.361-8.06 9.506-14.507 8.436-.856-.169-1.703-.38-2.551-.568.858.148 1.711.319 2.568.447 6.357.933 12.246-2.195 14.49-8.315Z"/>
    <path class="cls-10" d="M158.187 144.455c-2.026 6.361-8.06 9.506-14.506 8.436-.856-.169-1.703-.38-2.552-.568.859.148 1.712.319 2.569.447 6.357.933 12.246-2.195 14.49-8.315Z"/>
    <path class="cls-10" d="M160.058 148.728c-2.027 6.362-8.06 9.506-14.507 8.436-.856-.168-1.703-.38-2.551-.567.858.147 1.711.318 2.568.446 6.357.933 12.246-2.195 14.49-8.315Z"/>
    <path class="cls-10" d="M161.884 152.9c-2.027 6.362-8.06 9.506-14.507 8.436-.856-.168-1.703-.38-2.551-.567.858.148 1.711.319 2.568.446 6.357.933 12.246-2.195 14.49-8.315ZM166.112 162.563c-2.026 6.361-8.06 9.506-14.506 8.435-.856-.168-1.703-.38-2.552-.567.859.148 1.712.319 2.569.446 6.357.933 12.246-2.195 14.49-8.315ZM168.415 167.825c-2.026 6.362-8.06 9.506-14.506 8.436-.856-.169-1.703-.38-2.552-.568.859.148 1.712.32 2.569.447 6.357.933 12.246-2.195 14.49-8.315ZM170.667 172.97c-2.026 6.362-8.06 9.507-14.506 8.436-.856-.168-1.703-.38-2.552-.567.859.148 1.712.319 2.569.446 6.357.933 12.246-2.195 14.49-8.314ZM173.136 178.61c-2.027 6.362-8.06 9.507-14.507 8.437-.855-.169-1.703-.38-2.551-.568.858.148 1.711.319 2.568.447 6.358.933 12.246-2.195 14.49-8.315Z"/>
    <path class="cls-10" d="M175.15 183.214c-2.026 6.361-8.06 9.506-14.506 8.436-.856-.17-1.703-.38-2.552-.568.859.148 1.712.319 2.569.447 6.357.932 12.246-2.196 14.49-8.315Z"/>
    <path class="cls-11" d="M141.434 129.58c-7.69 3.666-4.208 11.739 3.71 8.477 7.77-3.608 4.196-11.637-3.71-8.476Zm0 0c8.074-3.327 11.65 4.977 3.81 8.706-8.063 3.226-11.73-5.033-3.81-8.705Z"/>
    <path class="cls-11" d="M141.648 130.07c-6.799 3.247-3.725 10.388 3.281 7.497 6.879-3.19 3.714-10.287-3.28-7.496Zm0 0c7.162-2.956 10.33 4.415 3.38 7.726-7.15 2.856-10.409-4.472-3.38-7.725Z"/>
    <path class="cls-11" d="M141.881 130.603c-5.83 2.763-3.18 8.94 2.815 6.432 5.91-2.706 3.168-8.84-2.815-6.432Zm0 0c6.15-2.574 8.896 3.834 2.915 6.66-6.137 2.474-8.976-3.89-2.915-6.66Z"/>
    <path class="cls-11" d="M142.1 131.104c-4.94 2.326-2.686 7.531 2.377 5.43 4.979-2.296 2.68-7.48-2.377-5.43Zm0 0c5.218-2.168 7.567 3.268 2.477 5.658-5.212 2.116-7.606-3.298-2.476-5.658Z"/>
  </g>
  <g id="firstaidkit">
    <rect class="cls-2" x="36.913" y="82.211" width="226.174" height="135.578" rx="4.565" ry="4.565"/>
    <path class="cls-7" d="M179.606 129.76v10.13a3.889 3.889 0 0 1-3.889 3.888h-12.874a3.889 3.889 0 0 0-3.89 3.889v12.875a3.889 3.889 0 0 1-3.888 3.888h-10.13a3.889 3.889 0 0 1-3.889-3.888v-12.875a3.889 3.889 0 0 0-3.888-3.889h-12.875a3.889 3.889 0 0 1-3.889-3.889v-10.13a3.889 3.889 0 0 1 3.89-3.888h12.874a3.889 3.889 0 0 0 3.888-3.89v-12.874a3.889 3.889 0 0 1 3.89-3.889h10.129a3.889 3.889 0 0 1 3.889 3.89v12.874a3.889 3.889 0 0 0 3.889 3.889h12.874a3.889 3.889 0 0 1 3.89 3.889ZM88.248 185.602v3.537h5.31v2.278h-5.31v6.907h-2.68v-15.103h9.948v2.381h-7.268ZM97.939 198.324v-15.103h2.68v15.103h-2.68ZM112.28 198.324l-4.031-6.237a46.038 46.038 0 0 1-1.702-.072v6.31h-2.783V183.22c.151 0 .732-.027 1.742-.077a50.04 50.04 0 0 1 2.443-.079c3.836 0 5.753 1.486 5.753 4.455 0 .893-.264 1.708-.794 2.443s-1.196 1.255-2 1.557l4.465 6.804h-3.094Zm-5.733-12.773v4.195c.495.042.873.063 1.135.063 1.12 0 1.94-.159 2.458-.475.52-.315.779-.93.779-1.846 0-.742-.279-1.26-.835-1.556-.557-.295-1.434-.444-2.63-.444-.288 0-.59.022-.907.063ZM115.94 197.49l.99-2.403c1.058.742 2.099 1.113 3.123 1.113 1.574 0 2.361-.55 2.361-1.65 0-.515-.186-1.006-.557-1.474-.37-.466-1.136-.99-2.294-1.572-1.158-.58-1.938-1.058-2.34-1.433a3.815 3.815 0 0 1-.928-1.335 4.373 4.373 0 0 1-.325-1.712c0-1.168.428-2.136 1.284-2.907.856-.77 1.954-1.154 3.294-1.154 1.745 0 3.027.326 3.846.98l-.815 2.31c-.942-.675-1.935-1.012-2.98-1.012-.618 0-1.098.163-1.438.49-.34.327-.51.752-.51 1.273 0 .866.959 1.767 2.876 2.701 1.01.495 1.74.95 2.186 1.366s.787.9 1.02 1.455c.234.552.35 1.17.35 1.85 0 1.223-.482 2.23-1.447 3.02-.966.79-2.26 1.186-3.882 1.186-1.409 0-2.68-.364-3.815-1.093ZM133.6 185.602v12.722h-2.68v-12.722h-4.805v-2.381h12.506v2.381h-5.02ZM154.003 198.324l-1.104-3.061h-5.175l-1.051 3.061h-2.98l6.02-15.31h1.176l6.073 15.31h-2.96Zm-3.701-10.691-1.815 5.578h3.63l-1.815-5.578ZM158.611 198.324v-15.103h2.68v15.103h-2.68ZM167.787 198.324h-3.35V183.23c2.136-.075 3.48-.113 4.03-.113 2.2 0 3.943.645 5.232 1.934 1.29 1.288 1.934 2.998 1.934 5.129 0 5.43-2.615 8.144-7.846 8.144Zm-.67-12.753v10.31c.433.04.9.061 1.402.061 1.354 0 2.414-.49 3.18-1.473.767-.984 1.15-2.358 1.15-4.124 0-3.23-1.502-4.846-4.505-4.846-.29 0-.698.024-1.228.072ZM192.933 198.324l-4.207-6.433-1.681 2.3v4.133h-2.68v-15.103h2.68v7.226l5.135-7.226h3.052l-4.733 6.597 5.64 8.506h-3.206ZM197.447 198.324v-15.103h2.681v15.103h-2.68ZM209.417 185.602v12.722h-2.68v-12.722h-4.805v-2.381h12.506v2.381h-5.021Z"/>
  </g>
</svg>